<svg width="176" height="132" viewBox="0 0 176 132" fill="none" xmlns="http://www.w3.org/2000/svg">
<rect width="176" height="132" fill="white" fill-opacity="0.08"/>
<path d="M70 96H106C107.591 96 109.117 95.3679 110.243 94.2426C111.368 93.1173 112 91.5912 112 90V54L94 36H70C68.4087 36 66.8826 36.6321 65.7574 37.7574C64.6321 38.8826 64 40.4087 64 42V90C64 91.5912 64.6321 93.1173 65.7574 94.2426C66.8826 95.3679 68.4087 96 70 96ZM91 42L106 57H91V42ZM77.5 63C78.0911 63.0003 78.6764 63.1167 79.2225 63.3432C79.7686 63.5697 80.2647 63.9015 80.6826 64.3194C81.1005 64.7376 81.4319 65.2341 81.6579 65.7801C81.884 66.3264 82.0003 66.912 82 67.503C81.9998 68.094 81.8832 68.6796 81.6568 69.2256C81.4304 69.7716 81.0986 70.2678 80.6805 70.6857C80.2623 71.1036 79.766 71.4348 79.2197 71.661C78.6735 71.8869 78.0881 72.0033 77.497 72.003C76.3031 72.0027 75.1583 71.5281 74.3144 70.6836C73.4705 69.8391 72.9966 68.694 72.997 67.5C72.9974 66.306 73.472 65.1612 74.3165 64.3173C75.161 63.4734 76.3061 62.9997 77.5 63ZM79 78L83.791 82.089L91 69L103 87H73L79 78Z" fill="white" fill-opacity="0.08"/>
</svg>
