<svg width="677" height="151" viewBox="0 0 677 151" fill="none" xmlns="http://www.w3.org/2000/svg">
<path d="M197.712 133.064C188.08 133.064 178.448 130.484 169.848 125.668V101.416C177.588 107.092 188.768 111.392 197.024 111.392C205.968 111.392 211.3 106.748 211.3 99.696C211.3 80.432 169.16 78.712 169.16 43.796C169.16 22.124 185.672 10.256 205.624 10.256C213.88 10.256 222.48 12.32 228.672 15.416V38.808C222.996 34.852 213.708 31.928 206.484 31.928C198.056 31.928 192.552 36.228 192.552 42.592C192.552 59.448 234.692 62.888 234.692 99.008C234.692 121.368 218.524 133.064 197.712 133.064ZM328.271 12.32H351.835L328.271 131H304.707L293.871 58.072L282.863 131H259.127L235.563 12.32H259.815L272.199 88.516L284.067 12.32H304.191L316.059 87.828L328.271 12.32ZM401.29 131L397.506 108.64H373.77L369.986 131H345.218L371.534 12.32H400.258L426.574 131H401.29ZM377.382 87.14H393.894L385.638 38.636L377.382 87.14ZM467.147 12.32C490.367 12.32 507.911 29.348 507.911 51.88C507.911 74.412 490.367 91.44 467.147 91.44H458.719V131H434.811V12.32H467.147ZM466.631 69.08C476.263 69.08 483.487 61.684 483.487 51.88C483.487 42.076 476.263 34.68 466.631 34.68H458.719V69.08H466.631ZM551.148 133.064C531.712 133.064 516.92 118.788 516.92 99.868V12.32H540.484V99.352C540.484 105.544 545.128 110.188 551.148 110.188C557.34 110.188 561.984 105.544 561.984 99.352V12.32H585.548V99.868C585.548 118.788 570.928 133.064 551.148 133.064ZM634.948 12.32C658.168 12.32 675.712 29.348 675.712 51.88C675.712 74.412 658.168 91.44 634.948 91.44H626.52V131H602.612V12.32H634.948ZM634.432 69.08C644.064 69.08 651.288 61.684 651.288 51.88C651.288 42.076 644.064 34.68 634.432 34.68H626.52V69.08H634.432Z" fill="white"/>
<g filter="url(#filter0_d_1140_1646)">
<circle cx="75.5" cy="71.5" r="61.5" fill="white"/>
</g>
<g filter="url(#filter1_dii_1140_1646)">
<path d="M81.7507 71.6686C80.9619 73.004 80.3686 73.9734 79.8074 74.9586C77.7762 78.5312 75.7822 82.1274 73.7205 85.69C70.5607 91.1291 66.4665 95.6128 60.7434 98.4095C48.4909 104.387 34.0947 96.6907 32.1615 83.1564C31.2119 76.4698 32.595 70.221 35.8708 64.3732C41.6771 54.0132 47.5746 43.705 53.4356 33.3761C53.53 33.2096 53.6594 33.058 53.9344 32.654C57.9973 43.8454 61.9848 54.8254 66.0665 66.0177L54.0431 68.2783L51.105 60.3048C50.7525 60.8115 50.5128 61.0938 50.3333 61.4273C48.6922 64.2992 46.9899 67.1389 45.4532 70.0651C43.5681 73.6522 42.7056 77.4523 44.3291 81.3176C46.8852 87.3748 54.3336 88.9828 59.8672 84.8021C62.2974 82.9671 64.0111 80.5496 65.2174 77.8444C66.391 75.2013 68.0957 73.9012 71.0094 73.6121C74.4388 73.2732 77.8367 72.4028 81.7507 71.6686Z" fill="url(#paint0_linear_1140_1646)"/>
<path d="M96.6012 110.301C92.5595 99.1659 88.5869 88.2065 84.5497 77.0761L96.5186 74.8434L99.4626 82.7811C99.6464 82.6013 99.8155 82.4069 99.9684 82.1998C101.753 79.0668 103.625 75.9739 105.283 72.7741C107.099 69.275 107.845 65.5577 106.3 61.7911C103.907 55.9486 96.8052 54.1678 91.261 57.895C88.8693 59.5048 87.2537 61.7578 85.8647 64.2323C83.2614 68.8646 83.2406 68.8332 78.0159 69.7092C75.0972 70.1984 72.1915 70.7709 69.072 71.3418C69.3091 70.8429 69.4335 70.5344 69.5972 70.2458C72.0632 65.8853 74.492 61.5013 77.0193 57.1732C80.1987 51.7378 84.3769 47.3483 90.1031 44.5631C100.117 39.6957 112.655 44.4471 116.832 54.6838C120.055 62.5889 119.124 70.3337 115.185 77.6519C109.343 88.5003 103.101 99.1361 97.0235 109.859C96.8972 110.019 96.7557 110.168 96.6012 110.301Z" fill="url(#paint1_linear_1140_1646)"/>
</g>
<defs>
<filter id="filter0_d_1140_1646" x="0" y="0" width="151" height="151" filterUnits="userSpaceOnUse" color-interpolation-filters="sRGB">
<feFlood flood-opacity="0" result="BackgroundImageFix"/>
<feColorMatrix in="SourceAlpha" type="matrix" values="0 0 0 0 0 0 0 0 0 0 0 0 0 0 0 0 0 0 127 0" result="hardAlpha"/>
<feOffset dy="4"/>
<feGaussianBlur stdDeviation="7"/>
<feComposite in2="hardAlpha" operator="out"/>
<feColorMatrix type="matrix" values="0 0 0 0 0 0 0 0 0 0 0 0 0 0 0 0 0 0 0.25 0"/>
<feBlend mode="normal" in2="BackgroundImageFix" result="effect1_dropShadow_1140_1646"/>
<feBlend mode="normal" in="SourceGraphic" in2="effect1_dropShadow_1140_1646" result="shape"/>
</filter>
<filter id="filter1_dii_1140_1646" x="27.8677" y="32.6539" width="94.9127" height="85.6473" filterUnits="userSpaceOnUse" color-interpolation-filters="sRGB">
<feFlood flood-opacity="0" result="BackgroundImageFix"/>
<feColorMatrix in="SourceAlpha" type="matrix" values="0 0 0 0 0 0 0 0 0 0 0 0 0 0 0 0 0 0 127 0" result="hardAlpha"/>
<feOffset dy="4"/>
<feGaussianBlur stdDeviation="2"/>
<feComposite in2="hardAlpha" operator="out"/>
<feColorMatrix type="matrix" values="0 0 0 0 0.462789 0 0 0 0 0.462789 0 0 0 0 0.462789 0 0 0 0.25 0"/>
<feBlend mode="normal" in2="BackgroundImageFix" result="effect1_dropShadow_1140_1646"/>
<feBlend mode="normal" in="SourceGraphic" in2="effect1_dropShadow_1140_1646" result="shape"/>
<feColorMatrix in="SourceAlpha" type="matrix" values="0 0 0 0 0 0 0 0 0 0 0 0 0 0 0 0 0 0 127 0" result="hardAlpha"/>
<feOffset dy="4"/>
<feGaussianBlur stdDeviation="2"/>
<feComposite in2="hardAlpha" operator="arithmetic" k2="-1" k3="1"/>
<feColorMatrix type="matrix" values="0 0 0 0 1 0 0 0 0 1 0 0 0 0 1 0 0 0 0.39 0"/>
<feBlend mode="normal" in2="shape" result="effect2_innerShadow_1140_1646"/>
<feColorMatrix in="SourceAlpha" type="matrix" values="0 0 0 0 0 0 0 0 0 0 0 0 0 0 0 0 0 0 127 0" result="hardAlpha"/>
<feOffset dx="-5"/>
<feGaussianBlur stdDeviation="2"/>
<feComposite in2="hardAlpha" operator="arithmetic" k2="-1" k3="1"/>
<feColorMatrix type="matrix" values="0 0 0 0 0.372549 0 0 0 0 0.658824 0 0 0 0 1 0 0 0 1 0"/>
<feBlend mode="normal" in2="effect2_innerShadow_1140_1646" result="effect3_innerShadow_1140_1646"/>
</filter>
<linearGradient id="paint0_linear_1140_1646" x1="74.2227" y1="25.8534" x2="53.0053" y2="108.829" gradientUnits="userSpaceOnUse">
<stop stop-color="#51C0FF"/>
<stop offset="1" stop-color="#9452FF"/>
</linearGradient>
<linearGradient id="paint1_linear_1140_1646" x1="74.2227" y1="25.8534" x2="53.0053" y2="108.829" gradientUnits="userSpaceOnUse">
<stop stop-color="#51C0FF"/>
<stop offset="1" stop-color="#9452FF"/>
</linearGradient>
</defs>
</svg>
