<svg width="678" height="125" viewBox="0 0 678 125" fill="none" xmlns="http://www.w3.org/2000/svg">
<g filter="url(#filter0_dii_1140_1640)">
<path d="M72.5576 61.7547C71.5051 63.5397 70.7135 64.8354 69.9647 66.1523C67.2545 70.9276 64.594 75.7346 61.843 80.4966C57.6269 87.7669 52.1641 93.76 44.5279 97.4983C28.1795 105.488 8.97062 95.2009 6.3912 77.11C5.12419 68.1722 6.96961 59.8197 11.3405 52.0032C19.0878 38.1554 26.9567 24.3768 34.777 10.5705C34.903 10.3479 35.0757 10.1453 35.4426 9.60519C40.8637 24.5644 46.1842 39.241 51.6304 54.2014L35.5877 57.2229L31.6674 46.5651C31.197 47.2424 30.8772 47.6197 30.6377 48.0655C28.448 51.9043 26.1766 55.7 24.1262 59.6114C21.611 64.4061 20.4601 69.4856 22.6264 74.6522C26.037 82.7486 35.9752 84.898 43.3587 79.3098C46.6013 76.857 48.8878 73.6256 50.4975 70.0097C52.0633 66.4767 54.3379 64.7389 58.2257 64.3525C62.8014 63.8994 67.3352 62.736 72.5576 61.7547Z" fill="url(#paint0_linear_1140_1640)"/>
<path d="M92.3725 113.394C86.9798 98.5093 81.6791 83.8604 76.2923 68.9827L92.2624 65.9984L96.1905 76.6084C96.4357 76.368 96.6614 76.1082 96.8653 75.8314C99.2461 71.6436 101.745 67.5094 103.957 63.2324C106.38 58.5553 107.375 53.5865 105.314 48.5517C102.121 40.7423 92.6447 38.362 85.2472 43.344C82.056 45.4958 79.9003 48.5073 78.0469 51.8148C74.5733 58.0066 74.5456 57.9647 67.5744 59.1357C63.6799 59.7896 59.8029 60.5547 55.6406 61.3179C55.957 60.6511 56.1229 60.2386 56.3414 59.8528C59.6317 54.0244 62.8724 48.1644 66.2445 42.3791C70.4868 35.1139 76.0618 29.2466 83.7022 25.5238C97.0639 19.0176 113.793 25.3686 119.367 39.0517C123.667 49.6182 122.424 59.9704 117.169 69.7524C109.374 84.253 101.045 98.4695 92.9361 112.802C92.7675 113.017 92.5787 113.215 92.3725 113.394Z" fill="url(#paint1_linear_1140_1640)"/>
</g>
<path d="M198.198 123.063C188.566 123.063 178.934 120.483 170.334 115.667V91.4153C178.074 97.0913 189.254 101.391 197.51 101.391C206.454 101.391 211.786 96.7473 211.786 89.6953C211.786 70.4313 169.646 68.7113 169.646 33.7953C169.646 12.1233 186.158 0.255264 206.11 0.255264C214.366 0.255264 222.966 2.31926 229.158 5.41526V28.8073C223.482 24.8513 214.194 21.9273 206.97 21.9273C198.542 21.9273 193.038 26.2273 193.038 32.5913C193.038 49.4473 235.178 52.8873 235.178 89.0073C235.178 111.367 219.01 123.063 198.198 123.063ZM328.756 2.31926H352.32L328.756 120.999H305.192L294.356 48.0713L283.348 120.999H259.612L236.048 2.31926H260.3L272.684 78.5153L284.552 2.31926H304.676L316.544 77.8273L328.756 2.31926ZM401.776 120.999L397.992 98.6393H374.256L370.472 120.999H345.704L372.02 2.31926H400.744L427.06 120.999H401.776ZM377.868 77.1393H394.38L386.124 28.6353L377.868 77.1393ZM467.633 2.31926C490.853 2.31926 508.397 19.3473 508.397 41.8793C508.397 64.4113 490.853 81.4393 467.633 81.4393H459.205V120.999H435.297V2.31926H467.633ZM467.117 59.0793C476.749 59.0793 483.973 51.6833 483.973 41.8793C483.973 32.0753 476.749 24.6793 467.117 24.6793H459.205V59.0793H467.117ZM551.633 123.063C532.197 123.063 517.405 108.787 517.405 89.8673V2.31926H540.969V89.3513C540.969 95.5433 545.613 100.187 551.633 100.187C557.825 100.187 562.469 95.5433 562.469 89.3513V2.31926H586.033V89.8673C586.033 108.787 571.413 123.063 551.633 123.063ZM635.434 2.31926C658.654 2.31926 676.198 19.3473 676.198 41.8793C676.198 64.4113 658.654 81.4393 635.434 81.4393H627.006V120.999H603.098V2.31926H635.434ZM634.918 59.0793C644.55 59.0793 651.774 51.6833 651.774 41.8793C651.774 32.0753 644.55 24.6793 634.918 24.6793H627.006V59.0793H634.918Z" fill="#2C3643"/>
<defs>
<filter id="filter0_dii_1140_1640" x="0.655327" y="9.60519" width="126.655" height="114.476" filterUnits="userSpaceOnUse" color-interpolation-filters="sRGB">
<feFlood flood-opacity="0" result="BackgroundImageFix"/>
<feColorMatrix in="SourceAlpha" type="matrix" values="0 0 0 0 0 0 0 0 0 0 0 0 0 0 0 0 0 0 127 0" result="hardAlpha"/>
<feOffset dy="5.34394"/>
<feGaussianBlur stdDeviation="2.67197"/>
<feComposite in2="hardAlpha" operator="out"/>
<feColorMatrix type="matrix" values="0 0 0 0 0.462789 0 0 0 0 0.462789 0 0 0 0 0.462789 0 0 0 0.25 0"/>
<feBlend mode="normal" in2="BackgroundImageFix" result="effect1_dropShadow_1140_1640"/>
<feBlend mode="normal" in="SourceGraphic" in2="effect1_dropShadow_1140_1640" result="shape"/>
<feColorMatrix in="SourceAlpha" type="matrix" values="0 0 0 0 0 0 0 0 0 0 0 0 0 0 0 0 0 0 127 0" result="hardAlpha"/>
<feOffset dy="5.34394"/>
<feGaussianBlur stdDeviation="2.67197"/>
<feComposite in2="hardAlpha" operator="arithmetic" k2="-1" k3="1"/>
<feColorMatrix type="matrix" values="0 0 0 0 1 0 0 0 0 1 0 0 0 0 1 0 0 0 0.39 0"/>
<feBlend mode="normal" in2="shape" result="effect2_innerShadow_1140_1640"/>
<feColorMatrix in="SourceAlpha" type="matrix" values="0 0 0 0 0 0 0 0 0 0 0 0 0 0 0 0 0 0 127 0" result="hardAlpha"/>
<feOffset dx="-6.67993"/>
<feGaussianBlur stdDeviation="2.67197"/>
<feComposite in2="hardAlpha" operator="arithmetic" k2="-1" k3="1"/>
<feColorMatrix type="matrix" values="0 0 0 0 0.372549 0 0 0 0 0.658824 0 0 0 0 1 0 0 0 1 0"/>
<feBlend mode="normal" in2="effect2_innerShadow_1140_1640" result="effect3_innerShadow_1140_1640"/>
</filter>
<linearGradient id="paint0_linear_1140_1640" x1="62.5133" y1="0.515083" x2="34.1086" y2="111.401" gradientUnits="userSpaceOnUse">
<stop stop-color="#51C0FF"/>
<stop offset="1" stop-color="#9452FF"/>
</linearGradient>
<linearGradient id="paint1_linear_1140_1640" x1="62.5133" y1="0.515083" x2="34.1086" y2="111.401" gradientUnits="userSpaceOnUse">
<stop stop-color="#51C0FF"/>
<stop offset="1" stop-color="#9452FF"/>
</linearGradient>
</defs>
</svg>
