<svg width="151" height="151" viewBox="0 0 151 151" fill="none" xmlns="http://www.w3.org/2000/svg">
<g filter="url(#filter0_d_1140_1672)">
<circle cx="75.5" cy="71.5" r="61.5" fill="white"/>
</g>
<g filter="url(#filter1_dii_1140_1672)">
<path d="M81.7507 71.6686C80.9619 73.004 80.3686 73.9734 79.8074 74.9586C77.7762 78.5312 75.7822 82.1274 73.7205 85.69C70.5607 91.1291 66.4665 95.6128 60.7434 98.4095C48.4909 104.387 34.0947 96.6907 32.1615 83.1564C31.2119 76.4698 32.595 70.221 35.8708 64.3732C41.6771 54.0132 47.5746 43.705 53.4356 33.3761C53.53 33.2096 53.6594 33.058 53.9344 32.654C57.9973 43.8454 61.9848 54.8254 66.0665 66.0177L54.0431 68.2783L51.105 60.3048C50.7525 60.8115 50.5128 61.0938 50.3333 61.4273C48.6922 64.2992 46.9899 67.1389 45.4532 70.0651C43.5681 73.6522 42.7056 77.4523 44.3291 81.3176C46.8852 87.3748 54.3336 88.9828 59.8672 84.8021C62.2974 82.9671 64.0111 80.5496 65.2174 77.8444C66.391 75.2013 68.0957 73.9012 71.0094 73.6121C74.4388 73.2732 77.8367 72.4028 81.7507 71.6686Z" fill="url(#paint0_linear_1140_1672)"/>
<path d="M96.6012 110.301C92.5595 99.1659 88.5869 88.2065 84.5497 77.0761L96.5186 74.8434L99.4626 82.7811C99.6464 82.6013 99.8155 82.4069 99.9684 82.1998C101.753 79.0668 103.625 75.9739 105.283 72.7741C107.099 69.275 107.845 65.5577 106.3 61.7911C103.907 55.9486 96.8052 54.1678 91.261 57.895C88.8693 59.5048 87.2537 61.7578 85.8647 64.2323C83.2614 68.8646 83.2406 68.8332 78.0159 69.7092C75.0972 70.1984 72.1915 70.7709 69.072 71.3418C69.3091 70.8429 69.4335 70.5344 69.5972 70.2458C72.0632 65.8853 74.492 61.5013 77.0193 57.1732C80.1987 51.7378 84.3769 47.3483 90.1031 44.5631C100.117 39.6957 112.655 44.4471 116.832 54.6838C120.055 62.5889 119.124 70.3337 115.185 77.6519C109.343 88.5003 103.101 99.1361 97.0235 109.859C96.8972 110.019 96.7557 110.168 96.6012 110.301Z" fill="url(#paint1_linear_1140_1672)"/>
</g>
<defs>
<filter id="filter0_d_1140_1672" x="0" y="0" width="151" height="151" filterUnits="userSpaceOnUse" color-interpolation-filters="sRGB">
<feFlood flood-opacity="0" result="BackgroundImageFix"/>
<feColorMatrix in="SourceAlpha" type="matrix" values="0 0 0 0 0 0 0 0 0 0 0 0 0 0 0 0 0 0 127 0" result="hardAlpha"/>
<feOffset dy="4"/>
<feGaussianBlur stdDeviation="7"/>
<feComposite in2="hardAlpha" operator="out"/>
<feColorMatrix type="matrix" values="0 0 0 0 0 0 0 0 0 0 0 0 0 0 0 0 0 0 0.25 0"/>
<feBlend mode="normal" in2="BackgroundImageFix" result="effect1_dropShadow_1140_1672"/>
<feBlend mode="normal" in="SourceGraphic" in2="effect1_dropShadow_1140_1672" result="shape"/>
</filter>
<filter id="filter1_dii_1140_1672" x="27.8677" y="32.654" width="94.9127" height="85.6473" filterUnits="userSpaceOnUse" color-interpolation-filters="sRGB">
<feFlood flood-opacity="0" result="BackgroundImageFix"/>
<feColorMatrix in="SourceAlpha" type="matrix" values="0 0 0 0 0 0 0 0 0 0 0 0 0 0 0 0 0 0 127 0" result="hardAlpha"/>
<feOffset dy="4"/>
<feGaussianBlur stdDeviation="2"/>
<feComposite in2="hardAlpha" operator="out"/>
<feColorMatrix type="matrix" values="0 0 0 0 0.462789 0 0 0 0 0.462789 0 0 0 0 0.462789 0 0 0 0.25 0"/>
<feBlend mode="normal" in2="BackgroundImageFix" result="effect1_dropShadow_1140_1672"/>
<feBlend mode="normal" in="SourceGraphic" in2="effect1_dropShadow_1140_1672" result="shape"/>
<feColorMatrix in="SourceAlpha" type="matrix" values="0 0 0 0 0 0 0 0 0 0 0 0 0 0 0 0 0 0 127 0" result="hardAlpha"/>
<feOffset dy="4"/>
<feGaussianBlur stdDeviation="2"/>
<feComposite in2="hardAlpha" operator="arithmetic" k2="-1" k3="1"/>
<feColorMatrix type="matrix" values="0 0 0 0 1 0 0 0 0 1 0 0 0 0 1 0 0 0 0.39 0"/>
<feBlend mode="normal" in2="shape" result="effect2_innerShadow_1140_1672"/>
<feColorMatrix in="SourceAlpha" type="matrix" values="0 0 0 0 0 0 0 0 0 0 0 0 0 0 0 0 0 0 127 0" result="hardAlpha"/>
<feOffset dx="-5"/>
<feGaussianBlur stdDeviation="2"/>
<feComposite in2="hardAlpha" operator="arithmetic" k2="-1" k3="1"/>
<feColorMatrix type="matrix" values="0 0 0 0 0.372549 0 0 0 0 0.658824 0 0 0 0 1 0 0 0 1 0"/>
<feBlend mode="normal" in2="effect2_innerShadow_1140_1672" result="effect3_innerShadow_1140_1672"/>
</filter>
<linearGradient id="paint0_linear_1140_1672" x1="74.2227" y1="25.8534" x2="53.0053" y2="108.829" gradientUnits="userSpaceOnUse">
<stop stop-color="#51C0FF"/>
<stop offset="1" stop-color="#9452FF"/>
</linearGradient>
<linearGradient id="paint1_linear_1140_1672" x1="74.2227" y1="25.8534" x2="53.0053" y2="108.829" gradientUnits="userSpaceOnUse">
<stop stop-color="#51C0FF"/>
<stop offset="1" stop-color="#9452FF"/>
</linearGradient>
</defs>
</svg>
