<svg width="678" height="125" viewBox="0 0 678 125" fill="none" xmlns="http://www.w3.org/2000/svg">
<g filter="url(#filter0_dii_1140_1653)">
<path d="M72.5583 61.7547C71.5059 63.5397 70.7143 64.8354 69.9655 66.1523C67.2552 70.9276 64.5947 75.7346 61.8438 80.4966C57.6276 87.7669 52.1649 93.76 44.5286 97.4983C28.1802 105.488 8.97135 95.2009 6.39193 77.11C5.12492 68.1722 6.97034 59.8197 11.3413 52.0032C19.0885 38.1554 26.9575 24.3768 34.7777 10.5705C34.9038 10.3479 35.0764 10.1453 35.4434 9.60519C40.8645 24.5644 46.1849 39.241 51.6311 54.2014L35.5885 57.2229L31.6681 46.5651C31.1977 47.2424 30.8779 47.6197 30.6384 48.0655C28.4488 51.9043 26.1774 55.7 24.1269 59.6114C21.6117 64.4061 20.4608 69.4856 22.6271 74.6522C26.0377 82.7486 35.976 84.898 43.3594 79.3098C46.602 76.857 48.8886 73.6256 50.4982 70.0097C52.0641 66.4767 54.3386 64.7389 58.2264 64.3525C62.8022 63.8994 67.3359 62.736 72.5583 61.7547Z" fill="url(#paint0_linear_1140_1653)"/>
<path d="M92.3733 113.394C86.9805 98.5093 81.6798 83.8604 76.293 68.9827L92.2631 65.9984L96.1912 76.6084C96.4364 76.368 96.6621 76.1082 96.8661 75.8314C99.2469 71.6436 101.745 67.5094 103.958 63.2324C106.381 58.5553 107.375 53.5865 105.315 48.5517C102.121 40.7423 92.6455 38.362 85.248 43.344C82.0567 45.4958 79.901 48.5073 78.0476 51.8148C74.5741 58.0066 74.5463 57.9647 67.5751 59.1357C63.6807 59.7896 59.8037 60.5547 55.6413 61.3179C55.9577 60.6511 56.1236 60.2386 56.3421 59.8528C59.6325 54.0244 62.8731 48.1644 66.2453 42.3791C70.4875 35.1139 76.0625 29.2466 83.7029 25.5238C97.0646 19.0176 113.793 25.3686 119.367 39.0517C123.668 49.6182 122.425 59.9704 117.17 69.7524C109.375 84.253 101.045 98.4695 92.9368 112.802C92.7682 113.017 92.5795 113.215 92.3733 113.394Z" fill="url(#paint1_linear_1140_1653)"/>
</g>
<path d="M198.198 123.063C188.566 123.063 178.934 120.483 170.334 115.667V91.4153C178.074 97.0913 189.254 101.391 197.51 101.391C206.454 101.391 211.786 96.7473 211.786 89.6953C211.786 70.4313 169.646 68.7113 169.646 33.7953C169.646 12.1233 186.158 0.255264 206.11 0.255264C214.366 0.255264 222.966 2.31926 229.158 5.41526V28.8073C223.482 24.8513 214.194 21.9273 206.97 21.9273C198.542 21.9273 193.038 26.2273 193.038 32.5913C193.038 49.4473 235.178 52.8873 235.178 89.0073C235.178 111.367 219.01 123.063 198.198 123.063ZM328.757 2.31926H352.321L328.757 120.999H305.193L294.357 48.0713L283.349 120.999H259.613L236.049 2.31926H260.301L272.685 78.5153L284.553 2.31926H304.677L316.545 77.8273L328.757 2.31926ZM401.776 120.999L397.992 98.6393H374.256L370.472 120.999H345.704L372.02 2.31926H400.744L427.06 120.999H401.776ZM377.868 77.1393H394.38L386.124 28.6353L377.868 77.1393ZM467.634 2.31926C490.854 2.31926 508.398 19.3473 508.398 41.8793C508.398 64.4113 490.854 81.4393 467.634 81.4393H459.206V120.999H435.298V2.31926H467.634ZM467.118 59.0793C476.75 59.0793 483.974 51.6833 483.974 41.8793C483.974 32.0753 476.75 24.6793 467.118 24.6793H459.206V59.0793H467.118ZM551.634 123.063C532.198 123.063 517.406 108.787 517.406 89.8673V2.31926H540.97V89.3513C540.97 95.5433 545.614 100.187 551.634 100.187C557.826 100.187 562.47 95.5433 562.47 89.3513V2.31926H586.034V89.8673C586.034 108.787 571.414 123.063 551.634 123.063ZM635.434 2.31926C658.654 2.31926 676.198 19.3473 676.198 41.8793C676.198 64.4113 658.654 81.4393 635.434 81.4393H627.006V120.999H603.098V2.31926H635.434ZM634.918 59.0793C644.55 59.0793 651.774 51.6833 651.774 41.8793C651.774 32.0753 644.55 24.6793 634.918 24.6793H627.006V59.0793H634.918Z" fill="white"/>
<defs>
<filter id="filter0_dii_1140_1653" x="0.65606" y="9.60519" width="126.655" height="114.476" filterUnits="userSpaceOnUse" color-interpolation-filters="sRGB">
<feFlood flood-opacity="0" result="BackgroundImageFix"/>
<feColorMatrix in="SourceAlpha" type="matrix" values="0 0 0 0 0 0 0 0 0 0 0 0 0 0 0 0 0 0 127 0" result="hardAlpha"/>
<feOffset dy="5.34394"/>
<feGaussianBlur stdDeviation="2.67197"/>
<feComposite in2="hardAlpha" operator="out"/>
<feColorMatrix type="matrix" values="0 0 0 0 0.462789 0 0 0 0 0.462789 0 0 0 0 0.462789 0 0 0 0.25 0"/>
<feBlend mode="normal" in2="BackgroundImageFix" result="effect1_dropShadow_1140_1653"/>
<feBlend mode="normal" in="SourceGraphic" in2="effect1_dropShadow_1140_1653" result="shape"/>
<feColorMatrix in="SourceAlpha" type="matrix" values="0 0 0 0 0 0 0 0 0 0 0 0 0 0 0 0 0 0 127 0" result="hardAlpha"/>
<feOffset dy="5.34394"/>
<feGaussianBlur stdDeviation="2.67197"/>
<feComposite in2="hardAlpha" operator="arithmetic" k2="-1" k3="1"/>
<feColorMatrix type="matrix" values="0 0 0 0 1 0 0 0 0 1 0 0 0 0 1 0 0 0 0.39 0"/>
<feBlend mode="normal" in2="shape" result="effect2_innerShadow_1140_1653"/>
<feColorMatrix in="SourceAlpha" type="matrix" values="0 0 0 0 0 0 0 0 0 0 0 0 0 0 0 0 0 0 127 0" result="hardAlpha"/>
<feOffset dx="-6.67993"/>
<feGaussianBlur stdDeviation="2.67197"/>
<feComposite in2="hardAlpha" operator="arithmetic" k2="-1" k3="1"/>
<feColorMatrix type="matrix" values="0 0 0 0 0.372549 0 0 0 0 0.658824 0 0 0 0 1 0 0 0 1 0"/>
<feBlend mode="normal" in2="effect2_innerShadow_1140_1653" result="effect3_innerShadow_1140_1653"/>
</filter>
<linearGradient id="paint0_linear_1140_1653" x1="62.5141" y1="0.515083" x2="34.1093" y2="111.401" gradientUnits="userSpaceOnUse">
<stop stop-color="#51C0FF"/>
<stop offset="1" stop-color="#9452FF"/>
</linearGradient>
<linearGradient id="paint1_linear_1140_1653" x1="62.5141" y1="0.515083" x2="34.1093" y2="111.401" gradientUnits="userSpaceOnUse">
<stop stop-color="#51C0FF"/>
<stop offset="1" stop-color="#9452FF"/>
</linearGradient>
</defs>
</svg>
