<svg width="63" height="60" viewBox="0 0 63 60" fill="none" xmlns="http://www.w3.org/2000/svg">
<path d="M31.3141 0.308594L40.2125 10.6448H22.4157L31.3141 0.308594Z" fill="url(#paint0_linear_6488_191471)"/>
<path d="M31.3187 59.2969L22.4203 48.9606L40.2172 48.9606L31.3187 59.2969Z" fill="url(#paint1_linear_6488_191471)"/>
<g filter="url(#filter0_f_6488_191471)">
<path d="M31.0718 2.95508L32.1027 6.06634L35.2374 7.08958L32.1027 8.11281L31.0718 11.2241L30.0409 8.11281L26.9062 7.08958L30.0409 6.06634L31.0718 2.95508Z" fill="white"/>
<path d="M31.0718 3.04855L32.0748 6.07559L32.0795 6.08968L32.0936 6.09429L35.1426 7.08958L32.0936 8.08486L32.0795 8.08947L32.0748 8.10356L31.0718 11.1306L30.0688 8.10356L30.0641 8.08947L30.05 8.08486L27.001 7.08958L30.05 6.09429L30.0641 6.08968L30.0688 6.07559L31.0718 3.04855Z" stroke="#3E74FF" stroke-width="0.0588017"/>
</g>
<path d="M57.05 44.5469L43.5821 47.0276L52.4805 31.73L57.05 44.5469Z" fill="url(#paint2_linear_6488_191471)"/>
<path d="M5.58283 15.0568L19.0507 12.5761L10.1523 27.8738L5.58283 15.0568Z" fill="url(#paint3_linear_6488_191471)"/>
<path d="M57.0516 15.0548L52.4821 27.8717L43.5837 12.5741L57.0516 15.0548Z" fill="url(#paint4_linear_6488_191471)"/>
<path d="M5.58124 44.5507L10.1507 31.7338L19.0491 47.0314L5.58124 44.5507Z" fill="url(#paint5_linear_6488_191471)"/>
<path d="M54.2167 29.5277C54.2167 41.9282 44.0883 51.9826 31.592 51.9826C19.0957 51.9826 8.96732 41.9282 8.96732 29.5277C8.96732 17.1272 19.0957 7.07279 31.592 7.07279C44.0883 7.07279 54.2167 17.1272 54.2167 29.5277Z" fill="url(#paint6_linear_6488_191471)" stroke="url(#paint7_linear_6488_191471)" stroke-width="0.294009"/>
<g filter="url(#filter1_i_6488_191471)">
<ellipse cx="31.5962" cy="29.5233" rx="19.9946" ry="19.8456" fill="url(#paint8_linear_6488_191471)"/>
</g>
<g filter="url(#filter2_ii_6488_191471)">
<ellipse cx="31.5919" cy="29.5243" rx="16.6622" ry="16.538" fill="url(#paint9_linear_6488_191471)"/>
</g>
<path d="M22.7053 15.1914L23.1177 16.4359L24.3715 16.8452L23.1177 17.2545L22.7053 18.499L22.2929 17.2545L21.0391 16.8452L22.2929 16.4359L22.7053 15.1914Z" fill="white"/>
<path d="M17.7082 9.67773L18.6704 12.5816L21.596 13.5366L18.6704 14.4916L17.7082 17.3955L16.746 14.4916L13.8203 13.5366L16.746 12.5816L17.7082 9.67773Z" fill="white"/>
<defs>
<filter id="filter0_f_6488_191471" x="25.4362" y="1.48503" width="11.2682" height="11.2091" filterUnits="userSpaceOnUse" color-interpolation-filters="sRGB">
<feFlood flood-opacity="0" result="BackgroundImageFix"/>
<feBlend mode="normal" in="SourceGraphic" in2="BackgroundImageFix" result="shape"/>
<feGaussianBlur stdDeviation="0.735022" result="effect1_foregroundBlur_6488_191471"/>
</filter>
<filter id="filter1_i_6488_191471" x="11.6016" y="9.08972" width="39.9922" height="40.2792" filterUnits="userSpaceOnUse" color-interpolation-filters="sRGB">
<feFlood flood-opacity="0" result="BackgroundImageFix"/>
<feBlend mode="normal" in="SourceGraphic" in2="BackgroundImageFix" result="shape"/>
<feColorMatrix in="SourceAlpha" type="matrix" values="0 0 0 0 0 0 0 0 0 0 0 0 0 0 0 0 0 0 127 0" result="hardAlpha"/>
<feOffset dy="-0.588017"/>
<feGaussianBlur stdDeviation="0.588017"/>
<feComposite in2="hardAlpha" operator="arithmetic" k2="-1" k3="1"/>
<feColorMatrix type="matrix" values="0 0 0 0 0 0 0 0 0 0.172667 0 0 0 0 0.616667 0 0 0 0.15 0"/>
<feBlend mode="normal" in2="shape" result="effect1_innerShadow_6488_191471"/>
</filter>
<filter id="filter2_ii_6488_191471" x="14.9297" y="12.3983" width="33.3281" height="34.252" filterUnits="userSpaceOnUse" color-interpolation-filters="sRGB">
<feFlood flood-opacity="0" result="BackgroundImageFix"/>
<feBlend mode="normal" in="SourceGraphic" in2="BackgroundImageFix" result="shape"/>
<feColorMatrix in="SourceAlpha" type="matrix" values="0 0 0 0 0 0 0 0 0 0 0 0 0 0 0 0 0 0 127 0" result="hardAlpha"/>
<feOffset dy="0.588017"/>
<feGaussianBlur stdDeviation="1.47004"/>
<feComposite in2="hardAlpha" operator="arithmetic" k2="-1" k3="1"/>
<feColorMatrix type="matrix" values="0 0 0 0 0 0 0 0 0 0.193203 0 0 0 0 0.4875 0 0 0 1 0"/>
<feBlend mode="normal" in2="shape" result="effect1_innerShadow_6488_191471"/>
<feColorMatrix in="SourceAlpha" type="matrix" values="0 0 0 0 0 0 0 0 0 0 0 0 0 0 0 0 0 0 127 0" result="hardAlpha"/>
<feOffset dy="-0.588017"/>
<feGaussianBlur stdDeviation="1.47004"/>
<feComposite in2="hardAlpha" operator="arithmetic" k2="-1" k3="1"/>
<feColorMatrix type="matrix" values="0 0 0 0 0.4375 0 0 0 0 0.62875 0 0 0 0 1 0 0 0 1 0"/>
<feBlend mode="normal" in2="effect1_innerShadow_6488_191471" result="effect2_innerShadow_6488_191471"/>
</filter>
<linearGradient id="paint0_linear_6488_191471" x1="27.6151" y1="4.44309" x2="35.0131" y2="4.44309" gradientUnits="userSpaceOnUse">
<stop offset="0.488759" stop-color="#E3EBFF"/>
<stop offset="0.488859" stop-color="#D1E5EE"/>
<stop offset="0.488959" stop-color="#B3C2D9"/>
</linearGradient>
<linearGradient id="paint1_linear_6488_191471" x1="35.0177" y1="55.1624" x2="27.6197" y2="55.1624" gradientUnits="userSpaceOnUse">
<stop offset="0.488759" stop-color="#E3EBFF"/>
<stop offset="0.488859" stop-color="#D1E5EE"/>
<stop offset="0.488959" stop-color="#B3C2D9"/>
</linearGradient>
<linearGradient id="paint2_linear_6488_191471" x1="55.292" y1="39.3001" x2="51.6344" y2="45.683" gradientUnits="userSpaceOnUse">
<stop offset="0.488759" stop-color="#E3EBFF"/>
<stop offset="0.488859" stop-color="#D1E5EE"/>
<stop offset="0.488959" stop-color="#B3C2D9"/>
</linearGradient>
<linearGradient id="paint3_linear_6488_191471" x1="7.3408" y1="20.3036" x2="10.9984" y2="13.9208" gradientUnits="userSpaceOnUse">
<stop offset="0.488759" stop-color="#E3EBFF"/>
<stop offset="0.488859" stop-color="#D1E5EE"/>
<stop offset="0.488959" stop-color="#B3C2D9"/>
</linearGradient>
<linearGradient id="paint4_linear_6488_191471" x1="51.5946" y1="13.9424" x2="55.2522" y2="20.3253" gradientUnits="userSpaceOnUse">
<stop offset="0.488759" stop-color="#E3EBFF"/>
<stop offset="0.488859" stop-color="#D1E5EE"/>
<stop offset="0.488959" stop-color="#B3C2D9"/>
</linearGradient>
<linearGradient id="paint5_linear_6488_191471" x1="11.0382" y1="45.663" x2="7.38057" y2="39.2802" gradientUnits="userSpaceOnUse">
<stop offset="0.488759" stop-color="#E3EBFF"/>
<stop offset="0.488859" stop-color="#D1E5EE"/>
<stop offset="0.488959" stop-color="#B3C2D9"/>
</linearGradient>
<linearGradient id="paint6_linear_6488_191471" x1="16.9948" y1="12.7211" x2="47.1053" y2="46.5582" gradientUnits="userSpaceOnUse">
<stop stop-color="#D5E3FF"/>
<stop offset="0.520833" stop-color="#F0F5FF"/>
<stop offset="1" stop-color="#D0DFFE"/>
</linearGradient>
<linearGradient id="paint7_linear_6488_191471" x1="31.592" y1="6.92578" x2="31.592" y2="52.1296" gradientUnits="userSpaceOnUse">
<stop stop-color="white" stop-opacity="0.5"/>
<stop offset="1" stop-color="white" stop-opacity="0"/>
</linearGradient>
<linearGradient id="paint8_linear_6488_191471" x1="18.8219" y1="14.3635" x2="44.1442" y2="45.145" gradientUnits="userSpaceOnUse">
<stop stop-color="#B1CCFF"/>
<stop offset="1" stop-color="#D5E3FF"/>
</linearGradient>
<linearGradient id="paint9_linear_6488_191471" x1="20.5654" y1="15.9048" x2="34.1175" y2="46.1384" gradientUnits="userSpaceOnUse">
<stop stop-color="#78A6FF"/>
<stop offset="0.484375" stop-color="#376EC1"/>
<stop offset="1" stop-color="#1352B0"/>
</linearGradient>
</defs>
</svg>
