<svg width="16" height="16" viewBox="0 0 16 16" fill="none" xmlns="http://www.w3.org/2000/svg">
<path d="M8.00002 16C12.4183 16 16 12.4183 16 8.00002C16 3.58173 12.4183 0 8.00002 0C3.58173 0 0 3.58173 0 8.00002C0 12.4183 3.58173 16 8.00002 16Z" fill="#627EEA"/>
<path d="M8.25 2V6.43501L11.9985 8.11001L8.25 2Z" fill="white" fill-opacity="0.602"/>
<path d="M8.24901 2L4.5 8.11001L8.24901 6.43501V2Z" fill="white"/>
<path d="M8.25 10.984V13.9975L12.001 8.80795L8.25 10.984Z" fill="white" fill-opacity="0.602"/>
<path d="M8.24901 13.9975V10.9835L4.5 8.80795L8.24901 13.9975Z" fill="white"/>
<path d="M8.25 10.2864L11.9985 8.10989L8.25 6.43588V10.2864Z" fill="white" fill-opacity="0.2"/>
<path d="M4.5 8.10989L8.24901 10.2864V6.43588L4.5 8.10989Z" fill="white" fill-opacity="0.602"/>
</svg>
