<svg width="40" height="40" viewBox="0 0 40 40" fill="none" xmlns="http://www.w3.org/2000/svg">
<path d="M12 24.8538V27.5556C12 27.8045 12.1955 28 12.4444 28H15.1462C15.2618 28 15.3773 27.9556 15.4573 27.8667L25.1627 18.1702L21.8298 14.8373L12.1333 24.5338C12.0444 24.6227 12 24.7293 12 24.8538ZM27.7401 14.3396L25.6604 12.2599C25.5781 12.1775 25.4805 12.1122 25.373 12.0676C25.2654 12.023 25.1502 12 25.0338 12C24.9174 12 24.8021 12.023 24.6946 12.0676C24.5871 12.1122 24.4894 12.1775 24.4072 12.2599L22.7808 13.8864L26.1136 17.2192L27.7401 15.5928C27.8225 15.5106 27.8878 15.4129 27.9324 15.3054C27.977 15.1979 28 15.0826 28 14.9662C28 14.8498 27.977 14.7346 27.9324 14.627C27.8878 14.5195 27.8225 14.4219 27.7401 14.3396Z" fill="white"/>
</svg>
