<svg width="12" height="12" viewBox="0 0 12 12" fill="none" xmlns="http://www.w3.org/2000/svg">
<path d="M4.35821 12L4.1194 10.08C3.99005 10.03 3.86826 9.97 3.75403 9.9C3.6398 9.83 3.52776 9.755 3.41791 9.675L1.64179 10.425L0 7.575L1.53731 6.405C1.52736 6.335 1.52239 6.2676 1.52239 6.2028V5.7978C1.52239 5.7326 1.52736 5.665 1.53731 5.595L0 4.425L1.64179 1.575L3.41791 2.325C3.52736 2.245 3.64179 2.17 3.76119 2.1C3.8806 2.03 4 1.97 4.1194 1.92L4.35821 0H7.64179L7.8806 1.92C8.00995 1.97 8.13194 2.03 8.24657 2.1C8.36119 2.17 8.47304 2.245 8.58209 2.325L10.3582 1.575L12 4.425L10.4627 5.595C10.4726 5.665 10.4776 5.7326 10.4776 5.7978V6.2022C10.4776 6.2674 10.4677 6.335 10.4478 6.405L11.9851 7.575L10.3433 10.425L8.58209 9.675C8.47264 9.755 8.35821 9.83 8.23881 9.9C8.1194 9.97 8 10.03 7.8806 10.08L7.64179 12H4.35821ZM6.02985 8.1C6.60697 8.1 7.0995 7.895 7.50746 7.485C7.91542 7.075 8.1194 6.58 8.1194 6C8.1194 5.42 7.91542 4.925 7.50746 4.515C7.0995 4.105 6.60697 3.9 6.02985 3.9C5.44279 3.9 4.94766 4.105 4.54448 4.515C4.14129 4.925 3.9399 5.42 3.9403 6C3.9407 6.58 4.14229 7.075 4.54507 7.485C4.94786 7.895 5.44279 8.1 6.02985 8.1Z" fill="white"/>
</svg>
