<svg width="16" height="16" viewBox="0 0 16 16" fill="none" xmlns="http://www.w3.org/2000/svg">
<path d="M7.99685 0C12.4172 0 16 3.58284 16 8.00315C16 12.4235 12.4172 16.0031 8 16.0031C3.57969 16.0031 2.07335e-06 12.4203 2.07335e-06 8.00315C-0.00314629 3.58284 3.57969 0 7.99685 0Z" fill="#8247E5"/>
<path d="M7.99685 0C12.4172 0 16 3.58284 16 8.00315C16 12.4235 12.4172 16.0031 8 16.0031C3.57969 16.0031 2.07335e-06 12.4203 2.07335e-06 8.00315C-0.00314629 3.58284 3.57969 0 7.99685 0Z" fill="url(#paint0_linear_3154_16283)"/>
<defs>
<linearGradient id="paint0_linear_3154_16283" x1="-0.0509967" y1="13.2777" x2="16.1955" y2="4.92613" gradientUnits="userSpaceOnUse">
<stop stop-color="#A726C1"/>
<stop offset="0.88" stop-color="#803BDF"/>
<stop offset="1" stop-color="#7B3FE4"/>
</linearGradient>
</defs>
</svg>
