<svg width="62" height="52" viewBox="0 0 62 52" fill="none" xmlns="http://www.w3.org/2000/svg">
<rect x="15" width="32" height="32" rx="16" fill="url(#paint0_linear_243_1498)"/>
<g filter="url(#filter0_f_243_1498)">
<ellipse cx="31" cy="26.5" rx="10.5" ry="5.5" fill="url(#paint1_linear_243_1498)"/>
</g>
<path d="M28.2 12C29.3139 12 30.3822 12.4214 31.1698 13.1716C31.9575 13.9217 32.4 14.9391 32.4 16C32.4 17.0609 31.9575 18.0783 31.1698 18.8284C30.3822 19.5786 29.3139 20 28.2 20C27.0861 20 26.0178 19.5786 25.2302 18.8284C24.4425 18.0783 24 17.0609 24 16C24 14.9391 24.4425 13.9217 25.2302 13.1716C26.0178 12.4214 27.0861 12 28.2 12ZM34.5 12.6667C35.55 12.6667 36.25 14.1593 36.25 16C36.25 17.8407 35.55 19.3333 34.5 19.3333C33.45 19.3333 32.75 17.8407 32.75 16C32.75 14.1593 33.45 12.6667 34.5 12.6667ZM37.3 13C37.566 13 37.7984 13.5513 37.916 14.4973L37.9489 14.7927L37.9622 14.9493L37.9832 15.2787L37.9902 15.4513L37.9986 15.812L38 16L37.9986 16.188L37.9902 16.5487L37.9832 16.722L37.9622 17.0507L37.9482 17.2073L37.9167 17.5027C37.7984 18.4493 37.5667 19 37.3 19C37.034 19 36.8016 18.4487 36.684 17.5027L36.6511 17.2073C36.6463 17.1551 36.6418 17.1029 36.6378 17.0507L36.6168 16.7213C36.6141 16.6638 36.6118 16.6062 36.6098 16.5487L36.6014 16.188V15.812L36.6098 15.4513L36.6168 15.278L36.6378 14.9493L36.6518 14.7927L36.6833 14.4973C36.8016 13.5507 37.0333 13 37.3 13Z" fill="white"/>
<defs>
<filter id="filter0_f_243_1498" x="0.5" y="1" width="61" height="51" filterUnits="userSpaceOnUse" color-interpolation-filters="sRGB">
<feFlood flood-opacity="0" result="BackgroundImageFix"/>
<feBlend mode="normal" in="SourceGraphic" in2="BackgroundImageFix" result="shape"/>
<feGaussianBlur stdDeviation="10" result="effect1_foregroundBlur_243_1498"/>
</filter>
<linearGradient id="paint0_linear_243_1498" x1="47" y1="6.08" x2="13.1337" y2="14.9716" gradientUnits="userSpaceOnUse">
<stop stop-color="#51C0FF"/>
<stop offset="1" stop-color="#9452FF"/>
</linearGradient>
<linearGradient id="paint1_linear_243_1498" x1="41.5" y1="23.09" x2="22.5133" y2="32.6067" gradientUnits="userSpaceOnUse">
<stop stop-color="#51C0FF"/>
<stop offset="1" stop-color="#9452FF"/>
</linearGradient>
</defs>
</svg>
