<svg width="16" height="16" viewBox="0 0 16 16" fill="none" xmlns="http://www.w3.org/2000/svg">
<path d="M7.99685 0C12.4172 0 16 3.58284 16 8.00315C16 12.4235 12.4172 16.0031 8 16.0031C3.57969 16.0031 2.07335e-06 12.4203 2.07335e-06 8.00315C-0.00314629 3.58284 3.57969 0 7.99685 0Z" fill="#8247E5"/>
<path d="M7.99685 0C12.4172 0 16 3.58284 16 8.00315C16 12.4235 12.4172 16.0031 8 16.0031C3.57969 16.0031 2.07335e-06 12.4203 2.07335e-06 8.00315C-0.00314629 3.58284 3.57969 0 7.99685 0Z" fill="url(#paint0_linear_3011_173218)"/>
<mask id="mask0_3011_173218" style="mask-type:luminance" maskUnits="userSpaceOnUse" x="2" y="3" width="12" height="10">
<path d="M13.1854 3.45996H2.69824V12.65H13.1854V3.45996Z" fill="white"/>
</mask>
<g mask="url(#mask0_3011_173218)">
<path d="M10.6196 6.25893C10.4275 6.14874 10.1819 6.14874 9.9647 6.25893L8.43459 7.16566L7.39563 7.74181L5.89386 8.64539C5.70181 8.75558 5.45624 8.75558 5.239 8.64539L4.06466 7.93071C3.87261 7.82052 3.73723 7.60013 3.73723 7.35456V5.98187C3.73723 5.76149 3.84742 5.54425 4.06466 5.40572L5.239 4.71938C5.43105 4.60918 5.67662 4.60918 5.89386 4.71938L7.0682 5.43406C7.26025 5.54425 7.39563 5.76464 7.39563 6.01021V6.91694L8.43459 6.31245V5.38053C8.43459 5.16015 8.3244 4.94291 8.10716 4.80438L5.92219 3.51355C5.73014 3.40336 5.48457 3.40336 5.26733 3.51355L3.02885 4.83272C2.81161 4.94291 2.70142 5.1633 2.70142 5.38053V7.95905C2.70142 8.17943 2.81161 8.39667 3.02885 8.5352L5.24215 9.82603C5.4342 9.93622 5.67977 9.93622 5.89701 9.82603L7.39878 8.94763L8.43774 8.34315L9.93951 7.46475C10.1316 7.35456 10.3771 7.35456 10.5944 7.46475L11.7687 8.1511C11.9608 8.26129 12.0961 8.48168 12.0961 8.72725V10.0999C12.0961 10.3203 11.9859 10.5376 11.7687 10.6761L10.6227 11.3624C10.4307 11.4726 10.1851 11.4726 9.96785 11.3624L8.79036 10.6761C8.59831 10.5659 8.46293 10.3455 8.46293 10.0999V9.22154L7.42397 9.82603V10.7328C7.42397 10.9531 7.53416 11.1704 7.7514 11.3089L9.9647 12.5997C10.1567 12.7099 10.4023 12.7099 10.6196 12.5997L12.8329 11.3089C13.0249 11.1987 13.1603 10.9783 13.1603 10.7328V8.12591C13.1603 7.90552 13.0501 7.68829 12.8329 7.54976L10.6196 6.25893Z" fill="white"/>
</g>
<defs>
<linearGradient id="paint0_linear_3011_173218" x1="-0.0509967" y1="13.2777" x2="16.1955" y2="4.92613" gradientUnits="userSpaceOnUse">
<stop stop-color="#A726C1"/>
<stop offset="0.88" stop-color="#803BDF"/>
<stop offset="1" stop-color="#7B3FE4"/>
</linearGradient>
</defs>
</svg>
