<svg width="18" height="18" viewBox="0 0 18 18" fill="none" xmlns="http://www.w3.org/2000/svg">
<path d="M7.83268 12.8337L13.7077 6.95866L12.541 5.79199L7.83268 10.5003L5.45768 8.12533L4.29102 9.29199L7.83268 12.8337ZM8.99935 17.3337C7.84657 17.3337 6.76324 17.1148 5.74935 16.677C4.73546 16.2392 3.85352 15.6456 3.10352 14.8962C2.35352 14.1467 1.75991 13.2648 1.32268 12.2503C0.885461 11.2359 0.666572 10.1525 0.666017 9.00033C0.665461 7.8481 0.88435 6.76477 1.32268 5.75033C1.76102 4.73588 2.35463 3.85394 3.10352 3.10449C3.85241 2.35505 4.73435 1.76144 5.74935 1.32366C6.76435 0.885881 7.84768 0.666992 8.99935 0.666992C10.151 0.666992 11.2343 0.885881 12.2493 1.32366C13.2643 1.76144 14.1463 2.35505 14.8952 3.10449C15.6441 3.85394 16.238 4.73588 16.6768 5.75033C17.1157 6.76477 17.3344 7.8481 17.3327 9.00033C17.331 10.1525 17.1121 11.2359 16.676 12.2503C16.2399 13.2648 15.6463 14.1467 14.8952 14.8962C14.1441 15.6456 13.2621 16.2395 12.2493 16.6778C11.2366 17.1162 10.1532 17.3348 8.99935 17.3337Z" fill="white"/>
</svg>
