<svg width="20" height="20" viewBox="0 0 20 20" fill="none" xmlns="http://www.w3.org/2000/svg">
<path d="M16.2222 2H3.77778C3.30628 2 2.8541 2.1873 2.5207 2.5207C2.1873 2.8541 2 3.30628 2 3.77778V16.2222C2 16.6937 2.1873 17.1459 2.5207 17.4793C2.8541 17.8127 3.30628 18 3.77778 18H16.2222C16.6937 18 17.1459 17.8127 17.4793 17.4793C17.8127 17.1459 18 16.6937 18 16.2222V3.77778C18 3.30628 17.8127 2.8541 17.4793 2.5207C17.1459 2.1873 16.6937 2 16.2222 2ZM13.2 14.4444L10 11.2444L6.8 14.4444L5.55556 13.2L8.75556 10L5.55556 6.8L6.8 5.55556L10 8.75556L13.2 5.55556L14.4444 6.8L11.2444 10L14.4444 13.2L13.2 14.4444Z" fill="#FF7585"/>
</svg>
