<svg width="16" height="16" viewBox="0 0 16 16" fill="none" xmlns="http://www.w3.org/2000/svg">
<path d="M8.04835 4.02864C7.78625 4.31187 7.23669 4.92485 6.69136 5.6435C5.72329 6.92017 5.21177 7.93475 5.21177 8.58154C5.21177 10.1584 6.4969 11.4435 8.07371 11.4435C9.65053 11.4435 10.9357 10.1584 10.9357 8.58154C10.9357 7.93475 10.4157 6.92017 9.43071 5.6435C8.87692 4.92907 8.31467 4.31187 8.04835 4.02864Z" fill="url(#paint0_linear_3011_173551)"/>
<path fillRule="evenodd" clip-rule="evenodd" d="M16 8C16 12.4334 12.4334 16 8 16C3.56664 16 0 12.4334 0 8C0 3.56664 3.56664 0 8 0C12.4334 0 16 3.56664 16 8ZM2.76831 8.69567C2.76831 11.621 5.14833 14.001 8.07368 14.001C10.999 14.001 13.3791 11.621 13.3791 8.69567C13.3791 5.8295 9.90414 2.21931 9.75618 2.06712C9.67164 1.97834 9.53213 1.97834 9.44336 2.06289C9.35458 2.14744 9.35458 2.28694 9.43913 2.37572C9.44758 2.38417 10.3311 3.29729 11.202 4.53591C12.3391 6.155 12.9394 7.59232 12.9394 8.69567C12.9394 11.3801 10.7581 13.5614 8.07368 13.5614C5.38929 13.5614 3.20796 11.3758 3.20796 8.69567C3.20796 7.59232 3.80402 6.155 4.93273 4.53591C5.79512 3.29729 6.67019 2.38417 6.67865 2.37572C6.76319 2.28694 6.76319 2.14744 6.67442 2.06289C6.58564 1.97834 6.44614 1.97834 6.36159 2.06712C6.32354 2.10517 5.45693 3.00983 4.57341 4.27804C3.37705 5.99859 2.76831 7.48663 2.76831 8.69567ZM8.0737 12.9442C5.66831 12.9442 3.71526 10.9869 3.71526 8.58574C3.71526 6.23531 6.99572 2.95486 7.13522 2.81958C7.21977 2.73503 7.3635 2.73503 7.44805 2.81958C7.53259 2.90413 7.53259 3.04786 7.44805 3.13241C7.41423 3.16623 4.15914 6.42132 4.15914 8.58574C4.15914 10.7459 5.91773 12.5045 8.07793 12.5045C10.2381 12.5045 11.9967 10.7459 11.9967 8.58574C11.9967 7.69799 11.4218 6.47204 10.3311 5.03051C9.50112 3.93641 8.66697 3.10419 8.64478 3.08207C8.55601 2.99752 8.55562 2.85763 8.6444 2.76885C8.72894 2.68008 8.86845 2.68008 8.95722 2.76885C9.10095 2.90836 12.4406 6.23108 12.4406 8.58574C12.4321 10.9869 10.4791 12.9442 8.0737 12.9442ZM8.07371 11.8874C6.25171 11.8874 4.77212 10.4078 4.77212 8.58577C4.77212 6.81449 7.76089 3.68622 7.88771 3.55517L8.04412 3.3903L8.20476 3.55094C8.33581 3.68199 11.3753 6.81026 11.3753 8.58154C11.3753 10.4078 9.89572 11.8874 8.07371 11.8874Z" fill="url(#paint1_linear_3011_173551)"/>
<defs>
<linearGradient id="paint0_linear_3011_173551" x1="8" y1="15.999" x2="8" y2="-0.000979424" gradientUnits="userSpaceOnUse">
<stop stop-color="#05AAC5"/>
<stop offset="1" stop-color="#71E0EC"/>
</linearGradient>
<linearGradient id="paint1_linear_3011_173551" x1="8" y1="15.999" x2="8" y2="-0.000979424" gradientUnits="userSpaceOnUse">
<stop stop-color="#05AAC5"/>
<stop offset="1" stop-color="#71E0EC"/>
</linearGradient>
</defs>
</svg>
