<svg width="40" height="40" viewBox="0 0 40 40" fill="none" xmlns="http://www.w3.org/2000/svg">
<path d="M26.5623 25.6246C26.5623 26.0351 26.4725 26.4406 26.2991 26.8127C26.1258 27.1848 25.8731 27.5145 25.5587 27.7785C25.2444 28.0425 24.8761 28.2345 24.4796 28.3411C24.0832 28.4476 23.6683 28.4661 23.2639 28.3952C22.8596 28.3242 22.4757 28.1657 22.1392 27.9306C21.8026 27.6955 21.5216 27.3896 21.3159 27.0344C21.1102 26.6792 20.9847 26.2832 20.9483 25.8743C20.9119 25.4654 20.9655 25.0535 21.1052 24.6675L16.9646 22.0074C16.5691 22.3953 16.0679 22.6578 15.5239 22.7619C14.9798 22.8661 14.4171 22.8072 13.9063 22.5928C13.3956 22.3783 12.9595 22.0178 12.6529 21.5565C12.3462 21.0951 12.1826 20.5535 12.1826 19.9996C12.1826 19.4456 12.3462 18.904 12.6529 18.4427C12.9595 17.9813 13.3956 17.6208 13.9063 17.4064C14.4171 17.1919 14.9798 17.1331 15.5239 17.2372C16.0679 17.3414 16.5691 17.6038 16.9646 17.9918L21.1052 15.3355C20.8681 14.684 20.8794 13.9679 21.1369 13.3242C21.3944 12.6804 21.88 12.1541 22.501 11.8458C23.122 11.5375 23.8349 11.4689 24.5033 11.6529C25.1718 11.837 25.749 12.2609 26.1246 12.8437C26.5002 13.4264 26.648 14.1271 26.5396 14.812C26.4313 15.4968 26.0744 16.1176 25.5372 16.5559C25 16.9942 24.3201 17.2192 23.6275 17.1879C22.9349 17.1567 22.2781 16.8713 21.7826 16.3863L17.6419 19.0464C17.8657 19.6648 17.8657 20.3421 17.6419 20.9605L21.7826 23.6207C22.1779 23.2338 22.6785 22.972 23.2219 22.8682C23.7652 22.7644 24.3271 22.8231 24.8372 23.0369C25.3473 23.2508 25.7831 23.6104 26.0899 24.0706C26.3967 24.5309 26.561 25.0714 26.5623 25.6246Z" fill="white"/>
</svg>
