<svg width="24" height="24" viewBox="0 0 24 24" fill="none" xmlns="http://www.w3.org/2000/svg">
<path d="M16.125 12C15.4288 12 14.7611 12.2766 14.2688 12.7688C13.7766 13.2611 13.5 13.9288 13.5 14.625C13.5 15.3212 13.7766 15.9889 14.2688 16.4812C14.7611 16.9734 15.4288 17.25 16.125 17.25H21V21H3V8.25H21V12H16.125ZM16.875 15.75H16.125C15.8266 15.75 15.5405 15.6315 15.3295 15.4205C15.1185 15.2095 15 14.9234 15 14.625C15 14.3266 15.1185 14.0405 15.3295 13.8295C15.5405 13.6185 15.8266 13.5 16.125 13.5H16.875C17.1734 13.5 17.4595 13.6185 17.6705 13.8295C17.8815 14.0405 18 14.3266 18 14.625C18 14.9234 17.8815 15.2095 17.6705 15.4205C17.4595 15.6315 17.1734 15.75 16.875 15.75ZM15 3L18 6.75H9L15 3Z" fill="white"/>
</svg>
