<svg width="62" height="52" viewBox="0 0 62 52" fill="none" xmlns="http://www.w3.org/2000/svg">
<rect x="15" width="32" height="32" rx="16" fill="url(#paint0_linear_243_1497)"/>
<g filter="url(#filter0_f_243_1497)">
<ellipse cx="31" cy="26.5" rx="10.5" ry="5.5" fill="url(#paint1_linear_243_1497)"/>
</g>
<path d="M27.0592 10H34.7988V22H33.6627V16.5032H33.6516C33.526 14.984 32.355 13.7935 30.929 13.7935C29.503 13.7935 28.332 14.984 28.2064 16.5032H28.1953V22H27.0592V10Z" fill="white"/>
<path d="M25 11.7032L25.4615 13.4064H25.8521V20.2968C25.656 20.2968 25.497 20.4701 25.497 20.6839V21.1484H25.426C25.23 21.1484 25.071 21.3217 25.071 21.5355V22H29.0473V21.5355C29.0473 21.3217 28.8884 21.1484 28.6923 21.1484H28.6213V20.6839C28.6213 20.4701 28.4623 20.2968 28.2663 20.2968H27.8402V11.7032H25Z" fill="white"/>
<path d="M33.7337 20.2968C33.5377 20.2968 33.3787 20.4701 33.3787 20.6839V21.1484H33.3077C33.1116 21.1484 32.9527 21.3217 32.9527 21.5355V22H36.929V21.5355C36.929 21.3217 36.77 21.1484 36.574 21.1484H36.503V20.6839C36.503 20.4701 36.344 20.2968 36.1479 20.2968V13.4064H36.5385L37 11.7032H34.1598V20.2968H33.7337Z" fill="white"/>
<defs>
<filter id="filter0_f_243_1497" x="0.5" y="1" width="61" height="51" filterUnits="userSpaceOnUse" color-interpolation-filters="sRGB">
<feFlood flood-opacity="0" result="BackgroundImageFix"/>
<feBlend mode="normal" in="SourceGraphic" in2="BackgroundImageFix" result="shape"/>
<feGaussianBlur stdDeviation="10" result="effect1_foregroundBlur_243_1497"/>
</filter>
<linearGradient id="paint0_linear_243_1497" x1="47" y1="6.08" x2="13.1337" y2="14.9716" gradientUnits="userSpaceOnUse">
<stop stop-color="#51C0FF"/>
<stop offset="1" stop-color="#9452FF"/>
</linearGradient>
<linearGradient id="paint1_linear_243_1497" x1="41.5" y1="23.09" x2="22.5133" y2="32.6067" gradientUnits="userSpaceOnUse">
<stop stop-color="#51C0FF"/>
<stop offset="1" stop-color="#9452FF"/>
</linearGradient>
</defs>
</svg>
