<svg width="623" height="177" viewBox="0 0 623 177" fill="none" xmlns="http://www.w3.org/2000/svg">
<rect y="81.8066" width="170.341" height="79.314" rx="39.657" fill="#F9CFF2"/>
<path d="M51.1487 112.312V115.008H46.7113V128.964H43.3714V115.008H38.9341V112.312H51.1487ZM56.9255 117.799C57.3549 117.099 57.9116 116.55 58.5955 116.153C59.2953 115.755 60.0905 115.556 60.9812 115.556V119.063H60.0985C59.0488 119.063 58.2535 119.31 57.7128 119.803C57.188 120.296 56.9255 121.155 56.9255 122.379V128.964H53.5856V115.747H56.9255V117.799ZM62.3719 122.308C62.3719 120.972 62.6344 119.787 63.1592 118.753C63.6999 117.719 64.4236 116.924 65.3302 116.368C66.2526 115.811 67.2784 115.533 68.4077 115.533C69.3937 115.533 70.2526 115.731 70.9842 116.129C71.7317 116.527 72.3281 117.028 72.7734 117.632V115.747H76.1372V128.964H72.7734V127.031C72.344 127.652 71.7476 128.169 70.9842 128.582C70.2367 128.98 69.3699 129.179 68.3838 129.179C67.2705 129.179 66.2526 128.892 65.3302 128.32C64.4236 127.747 63.6999 126.944 63.1592 125.91C62.6344 124.861 62.3719 123.66 62.3719 122.308ZM72.7734 122.356C72.7734 121.544 72.6144 120.853 72.2963 120.28C71.9782 119.692 71.5488 119.246 71.008 118.944C70.4673 118.626 69.8868 118.467 69.2665 118.467C68.6462 118.467 68.0737 118.618 67.5488 118.92C67.024 119.222 66.5946 119.668 66.2606 120.256C65.9425 120.829 65.7834 121.513 65.7834 122.308C65.7834 123.103 65.9425 123.803 66.2606 124.407C66.5946 124.996 67.024 125.449 67.5488 125.767C68.0896 126.085 68.6621 126.244 69.2665 126.244C69.8868 126.244 70.4673 126.093 71.008 125.791C71.5488 125.473 71.9782 125.028 72.2963 124.455C72.6144 123.866 72.7734 123.167 72.7734 122.356ZM78.5404 122.308C78.5404 120.972 78.8028 119.787 79.3277 118.753C79.8684 117.719 80.6 116.924 81.5225 116.368C82.4449 115.811 83.4708 115.533 84.6 115.533C85.4588 115.533 86.2779 115.723 87.0572 116.105C87.8365 116.471 88.4568 116.964 88.9181 117.584V111.31H92.3057V128.964H88.9181V127.008C88.5045 127.66 87.924 128.185 87.1765 128.582C86.429 128.98 85.5622 129.179 84.5761 129.179C83.4628 129.179 82.4449 128.892 81.5225 128.32C80.6 127.747 79.8684 126.944 79.3277 125.91C78.8028 124.861 78.5404 123.66 78.5404 122.308ZM88.9419 122.356C88.9419 121.544 88.7829 120.853 88.4648 120.28C88.1467 119.692 87.7173 119.246 87.1765 118.944C86.6358 118.626 86.0553 118.467 85.435 118.467C84.8147 118.467 84.2421 118.618 83.7173 118.92C83.1925 119.222 82.763 119.668 82.429 120.256C82.111 120.829 81.9519 121.513 81.9519 122.308C81.9519 123.103 82.111 123.803 82.429 124.407C82.763 124.996 83.1925 125.449 83.7173 125.767C84.2581 126.085 84.8306 126.244 85.435 126.244C86.0553 126.244 86.6358 126.093 87.1765 125.791C87.7173 125.473 88.1467 125.028 88.4648 124.455C88.7829 123.866 88.9419 123.167 88.9419 122.356ZM107.854 122.069C107.854 122.546 107.822 122.976 107.758 123.358H98.0965C98.176 124.312 98.51 125.059 99.0985 125.6C99.687 126.141 100.411 126.411 101.269 126.411C102.51 126.411 103.393 125.878 103.918 124.813H107.52C107.138 126.085 106.407 127.135 105.325 127.962C104.244 128.773 102.916 129.179 101.341 129.179C100.069 129.179 98.9236 128.9 97.9057 128.344C96.9037 127.771 96.1164 126.968 95.5439 125.934C94.9872 124.9 94.7089 123.707 94.7089 122.356C94.7089 120.988 94.9872 119.787 95.5439 118.753C96.1005 117.719 96.8798 116.924 97.8818 116.368C98.8838 115.811 100.037 115.533 101.341 115.533C102.597 115.533 103.719 115.803 104.705 116.344C105.707 116.884 106.478 117.656 107.019 118.658C107.576 119.644 107.854 120.781 107.854 122.069ZM104.395 121.115C104.379 120.256 104.069 119.572 103.464 119.063C102.86 118.539 102.12 118.276 101.246 118.276C100.419 118.276 99.7188 118.531 99.1462 119.039C98.5896 119.533 98.2476 120.224 98.1204 121.115H104.395ZM113.632 117.799C114.061 117.099 114.618 116.55 115.302 116.153C116.001 115.755 116.797 115.556 117.687 115.556V119.063H116.805C115.755 119.063 114.96 119.31 114.419 119.803C113.894 120.296 113.632 121.155 113.632 122.379V128.964H110.292V115.747H113.632V117.799ZM124.995 129.179C123.913 129.179 122.943 128.988 122.084 128.606C121.225 128.208 120.541 127.676 120.032 127.008C119.539 126.34 119.269 125.6 119.221 124.789H122.585C122.649 125.298 122.895 125.719 123.325 126.053C123.77 126.387 124.319 126.554 124.971 126.554C125.607 126.554 126.1 126.427 126.45 126.173C126.816 125.918 126.998 125.592 126.998 125.195C126.998 124.765 126.776 124.447 126.331 124.24C125.901 124.018 125.209 123.779 124.255 123.525C123.269 123.286 122.458 123.039 121.822 122.785C121.201 122.531 120.661 122.141 120.199 121.616C119.754 121.091 119.531 120.383 119.531 119.493C119.531 118.761 119.738 118.093 120.152 117.489C120.581 116.884 121.185 116.407 121.965 116.057C122.76 115.708 123.69 115.533 124.756 115.533C126.331 115.533 127.587 115.93 128.525 116.725C129.464 117.505 129.981 118.562 130.076 119.898H126.879C126.832 119.373 126.609 118.96 126.211 118.658C125.83 118.34 125.313 118.181 124.661 118.181C124.056 118.181 123.587 118.292 123.253 118.515C122.935 118.737 122.776 119.047 122.776 119.445C122.776 119.89 122.999 120.232 123.444 120.471C123.889 120.694 124.581 120.924 125.519 121.163C126.474 121.401 127.261 121.648 127.881 121.902C128.501 122.157 129.034 122.554 129.48 123.095C129.941 123.62 130.179 124.32 130.195 125.195C130.195 125.958 129.981 126.642 129.551 127.246C129.138 127.851 128.533 128.328 127.738 128.678C126.959 129.012 126.044 129.179 124.995 129.179Z" fill="#0D0D23"/>
<rect x="162.902" width="199.341" height="79.314" rx="39.657" transform="rotate(33.6097 162.902 0)" fill="#D0CCF4"/>
<path d="M173.906 53.9102C174.813 52.5459 175.928 51.5298 177.25 50.8618C178.595 50.1895 179.995 49.9074 181.45 50.0156C182.928 50.1194 184.33 50.6115 185.654 51.4919C187.204 52.5219 188.297 53.8216 188.935 55.3911C189.572 56.9606 189.656 58.6014 189.187 60.3135L185.988 58.1875C186.11 57.3139 185.99 56.5179 185.627 55.7993C185.278 55.0897 184.725 54.4839 183.97 53.9821C183.162 53.4451 182.313 53.1573 181.422 53.1189C180.553 53.076 179.71 53.2801 178.895 53.7312C178.093 54.191 177.384 54.8846 176.767 55.8118C176.16 56.7257 175.795 57.6482 175.673 58.5791C175.573 59.5055 175.706 60.3677 176.074 61.1656C176.463 61.9591 177.061 62.6243 177.869 63.1613C178.624 63.6631 179.397 63.9378 180.186 63.9852C180.998 64.0281 181.783 63.8241 182.541 63.3731L185.74 65.4992C184.334 66.6084 182.785 67.173 181.091 67.193C179.419 67.2086 177.802 66.6969 176.239 65.6581C174.914 64.7777 173.913 63.683 173.237 62.3738C172.582 61.0602 172.3 59.6601 172.391 58.1735C172.494 56.6956 173 55.2745 173.906 53.9102ZM189.979 74.8767C188.92 74.1724 188.12 73.3068 187.581 72.2797C187.05 71.2394 186.825 70.126 186.908 68.9393C187.003 67.7614 187.425 66.6095 188.173 65.4836C188.921 64.3577 189.827 63.5272 190.889 62.9919C191.965 62.4655 193.087 62.2566 194.256 62.3652C195.434 62.4606 196.553 62.8605 197.612 63.5648C198.672 64.269 199.474 65.1457 200.018 66.1948C200.571 67.2306 200.806 68.3419 200.724 69.5286C200.655 70.7241 200.246 71.8848 199.498 73.0107C198.75 74.1366 197.831 74.9583 196.742 75.4759C195.667 76.0024 194.534 76.2135 193.342 76.1093C192.173 76.0007 191.052 75.5898 189.979 74.8767ZM191.59 72.4527C192.094 72.7873 192.643 72.9806 193.239 73.0327C193.856 73.0804 194.461 72.9472 195.051 72.6332C195.642 72.3191 196.17 71.8111 196.637 71.1091C197.333 70.0627 197.587 69.0765 197.4 68.1504C197.236 67.2199 196.756 66.4905 195.962 65.9623C195.167 65.4341 194.309 65.2743 193.387 65.4829C192.487 65.6871 191.69 66.3124 190.994 67.3588C190.299 68.4052 190.02 69.3848 190.158 70.2977C190.318 71.2062 190.796 71.9245 191.59 72.4527ZM210.434 67.0165L200.662 81.7192L197.881 79.8704L207.653 65.1677L210.434 67.0165ZM215.964 70.6918L206.192 85.3945L203.41 83.5457L213.182 68.843L215.964 70.6918ZM222.989 88.2799C222.725 88.6772 222.461 89.0173 222.196 89.3L214.15 83.9518C213.688 84.7905 213.552 85.5979 213.743 86.374C213.934 87.1501 214.387 87.7758 215.102 88.2512C216.135 88.9379 217.165 88.9828 218.192 88.3859L221.192 90.3799C220.17 91.2282 218.98 91.6975 217.621 91.7876C216.271 91.8645 214.941 91.4672 213.63 90.5956C212.57 89.8913 211.77 89.0257 211.231 87.9986C210.713 86.9672 210.502 85.8625 210.597 84.6846C210.706 83.5155 211.135 82.368 211.883 81.2421C212.64 80.103 213.536 79.257 214.572 78.7042C215.608 78.1513 216.697 77.9204 217.84 78.0114C218.983 78.1025 220.097 78.5089 221.183 79.2308C222.229 79.9263 223.014 80.7721 223.536 81.7683C224.071 82.7733 224.286 83.8427 224.182 84.9765C224.1 86.1058 223.702 87.207 222.989 88.2799ZM220.636 85.5703C221.098 84.8463 221.219 84.105 220.997 83.3466C220.784 82.575 220.313 81.9471 219.585 81.4629C218.896 81.0051 218.173 80.8297 217.414 80.9366C216.677 81.0391 216.01 81.426 215.411 82.0973L220.636 85.5703ZM224.145 89.3923C224.903 88.2532 225.795 87.4138 226.822 86.8742C227.858 86.3214 228.94 86.0861 230.069 86.1683C231.208 86.2373 232.307 86.6239 233.366 87.3282C234.73 88.235 235.627 89.3277 236.057 90.6063C236.509 91.8805 236.478 93.2347 235.964 94.6691L232.963 92.675C233.121 92.0926 233.096 91.5412 232.888 91.021C232.702 90.4963 232.331 90.0491 231.775 89.6794C230.98 89.1512 230.157 89.0244 229.306 89.2991C228.464 89.5605 227.691 90.2211 226.987 91.2807C226.291 92.3271 225.982 93.2958 226.058 94.1867C226.143 95.0644 226.583 95.7674 227.377 96.2956C228.503 97.0439 229.573 97.0292 230.586 96.2514L233.587 98.2454C232.49 99.235 231.258 99.7815 229.89 99.8849C228.523 99.9883 227.164 99.591 225.813 98.693C224.753 97.9887 223.967 97.1319 223.454 96.1224C222.949 95.0998 222.747 94.0105 222.847 92.8547C222.955 91.6856 223.388 90.5315 224.145 89.3923ZM242.191 96.7454L238.652 102.07C238.405 102.441 238.311 102.77 238.369 103.056C238.448 103.339 238.7 103.621 239.124 103.902L240.415 104.761L238.857 107.105L237.109 105.943C234.764 104.385 234.349 102.467 235.863 100.188L239.389 94.8834L238.078 94.0119L239.597 91.727L240.908 92.5986L242.717 89.8766L245.518 91.7385L243.709 94.4605L246.173 96.098L244.654 98.3829L242.191 96.7454ZM245.627 111.862C244.567 111.158 243.767 110.292 243.228 109.265C242.697 108.225 242.473 107.111 242.555 105.925C242.65 104.747 243.072 103.595 243.82 102.469C244.569 101.343 245.474 100.513 246.536 99.9774C247.612 99.451 248.734 99.2421 249.903 99.3507C251.081 99.4461 252.2 99.846 253.26 100.55C254.319 101.255 255.121 102.131 255.665 103.18C256.218 104.216 256.453 105.327 256.371 106.514C256.302 107.71 255.894 108.87 255.145 109.996C254.397 111.122 253.479 111.944 252.39 112.461C251.314 112.988 250.181 113.199 248.99 113.095C247.821 112.986 246.7 112.575 245.627 111.862ZM247.238 109.438C247.741 109.773 248.291 109.966 248.886 110.018C249.504 110.066 250.108 109.933 250.699 109.619C251.289 109.305 251.818 108.797 252.284 108.095C252.98 107.048 253.234 106.062 253.048 105.136C252.883 104.205 252.404 103.476 251.609 102.948C250.814 102.42 249.956 102.26 249.034 102.468C248.135 102.673 247.337 103.298 246.642 104.344C245.946 105.391 245.668 106.37 245.806 107.283C245.966 108.192 246.443 108.91 247.238 109.438ZM262.49 109.406C263.235 109.061 264.002 108.912 264.792 108.96C265.595 109.016 266.367 109.291 267.109 109.784L265.167 112.704L264.432 112.216C263.558 111.635 262.759 111.4 262.036 111.511C261.326 111.631 260.632 112.201 259.954 113.221L256.31 118.705L253.528 116.856L260.844 105.849L263.625 107.698L262.49 109.406ZM265.654 125.173C264.753 124.575 264.051 123.879 263.547 123.085C263.052 122.279 262.777 121.456 262.723 120.618C262.682 119.789 262.866 119.024 263.276 118.322L266.077 120.184C265.848 120.643 265.82 121.13 265.993 121.646C266.179 122.171 266.544 122.614 267.087 122.974C267.617 123.327 268.098 123.494 268.53 123.475C268.975 123.466 269.308 123.296 269.528 122.964C269.766 122.607 269.757 122.219 269.5 121.8C269.266 121.377 268.822 120.795 268.168 120.055C267.479 119.31 266.939 118.656 266.551 118.092C266.175 117.537 265.94 116.913 265.847 116.221C265.766 115.537 265.972 114.824 266.465 114.083C266.87 113.473 267.412 113.031 268.091 112.757C268.783 112.491 269.551 112.428 270.394 112.568C271.25 112.717 272.121 113.087 273.009 113.676C274.32 114.548 275.146 115.575 275.488 116.756C275.838 117.925 275.683 119.092 275.023 120.257L272.36 118.488C272.611 118.024 272.655 117.556 272.491 117.085C272.349 116.608 272.007 116.19 271.464 115.829C270.96 115.494 270.508 115.327 270.106 115.328C269.718 115.337 269.414 115.508 269.194 115.839C268.948 116.21 268.944 116.618 269.182 117.063C269.43 117.495 269.879 118.07 270.528 118.788C271.191 119.515 271.71 120.156 272.086 120.711C272.461 121.266 272.685 121.892 272.757 122.589C272.85 123.282 272.662 123.997 272.191 124.734C271.768 125.37 271.211 125.82 270.518 126.086C269.84 126.361 269.072 126.423 268.216 126.275C267.382 126.121 266.528 125.754 265.654 125.173Z" fill="#0D0D23"/>
<rect x="463" y="82" width="159.341" height="79.314" rx="39.657" fill="#CFF0CE"/>
<path d="M512.264 120.617C513.202 120.791 513.974 121.261 514.578 122.024C515.182 122.787 515.485 123.662 515.485 124.648C515.485 125.539 515.262 126.326 514.817 127.01C514.387 127.678 513.759 128.203 512.932 128.585C512.105 128.966 511.127 129.157 509.998 129.157H502.817V112.505H509.687C510.817 112.505 511.787 112.688 512.598 113.054C513.425 113.42 514.045 113.929 514.459 114.581C514.888 115.233 515.103 115.972 515.103 116.799C515.103 117.77 514.841 118.581 514.316 119.233C513.807 119.885 513.123 120.346 512.264 120.617ZM506.157 119.376H509.21C510.006 119.376 510.618 119.201 511.047 118.851C511.477 118.485 511.691 117.968 511.691 117.3C511.691 116.632 511.477 116.116 511.047 115.75C510.618 115.384 510.006 115.201 509.21 115.201H506.157V119.376ZM509.52 126.438C510.332 126.438 510.96 126.247 511.405 125.865C511.866 125.483 512.097 124.943 512.097 124.243C512.097 123.527 511.858 122.97 511.381 122.573C510.904 122.159 510.26 121.953 509.449 121.953H506.157V126.438H509.52ZM530.624 115.941V129.157H527.26V127.487C526.83 128.06 526.266 128.513 525.566 128.847C524.882 129.165 524.135 129.324 523.323 129.324C522.29 129.324 521.375 129.11 520.58 128.68C519.785 128.235 519.156 127.591 518.695 126.748C518.25 125.889 518.027 124.871 518.027 123.694V115.941H521.367V123.217C521.367 124.267 521.63 125.078 522.154 125.65C522.679 126.207 523.395 126.485 524.302 126.485C525.224 126.485 525.948 126.207 526.473 125.65C526.997 125.078 527.26 124.267 527.26 123.217V115.941H530.624ZM546.563 115.941L538.38 135.408H534.826L537.688 128.823L532.392 115.941H536.138L539.549 125.173L543.008 115.941H546.563ZM560.65 122.263C560.65 122.74 560.618 123.169 560.554 123.551H550.892C550.972 124.505 551.306 125.253 551.894 125.793C552.483 126.334 553.206 126.605 554.065 126.605C555.306 126.605 556.188 126.072 556.713 125.006H560.316C559.934 126.279 559.202 127.328 558.121 128.155C557.039 128.966 555.711 129.372 554.137 129.372C552.864 129.372 551.719 129.094 550.701 128.537C549.699 127.964 548.912 127.161 548.34 126.127C547.783 125.094 547.505 123.901 547.505 122.549C547.505 121.181 547.783 119.98 548.34 118.947C548.896 117.913 549.676 117.118 550.678 116.561C551.679 116.004 552.833 115.726 554.137 115.726C555.393 115.726 556.514 115.996 557.501 116.537C558.502 117.078 559.274 117.849 559.815 118.851C560.371 119.837 560.65 120.974 560.65 122.263ZM557.19 121.308C557.174 120.45 556.864 119.766 556.26 119.257C555.656 118.732 554.916 118.469 554.041 118.469C553.214 118.469 552.514 118.724 551.942 119.233C551.385 119.726 551.043 120.418 550.916 121.308H557.19ZM566.427 117.992C566.857 117.293 567.413 116.744 568.097 116.346C568.797 115.949 569.592 115.75 570.483 115.75V119.257H569.6C568.551 119.257 567.755 119.503 567.215 119.996C566.69 120.489 566.427 121.348 566.427 122.573V129.157H563.087V115.941H566.427V117.992ZM577.79 129.372C576.709 129.372 575.739 129.181 574.88 128.799C574.021 128.402 573.337 127.869 572.828 127.201C572.335 126.533 572.065 125.793 572.017 124.982H575.381C575.444 125.491 575.691 125.913 576.12 126.247C576.566 126.581 577.114 126.748 577.766 126.748C578.403 126.748 578.896 126.62 579.245 126.366C579.611 126.112 579.794 125.785 579.794 125.388C579.794 124.958 579.572 124.64 579.126 124.434C578.697 124.211 578.005 123.972 577.051 123.718C576.065 123.479 575.253 123.233 574.617 122.978C573.997 122.724 573.456 122.334 572.995 121.809C572.55 121.285 572.327 120.577 572.327 119.686C572.327 118.955 572.534 118.287 572.947 117.682C573.377 117.078 573.981 116.601 574.76 116.251C575.556 115.901 576.486 115.726 577.552 115.726C579.126 115.726 580.383 116.124 581.321 116.919C582.259 117.698 582.776 118.756 582.872 120.092H579.675C579.627 119.567 579.405 119.153 579.007 118.851C578.625 118.533 578.108 118.374 577.456 118.374C576.852 118.374 576.383 118.485 576.049 118.708C575.731 118.931 575.572 119.241 575.572 119.638C575.572 120.084 575.794 120.426 576.24 120.664C576.685 120.887 577.377 121.118 578.315 121.356C579.269 121.595 580.057 121.841 580.677 122.096C581.297 122.35 581.83 122.748 582.275 123.288C582.737 123.813 582.975 124.513 582.991 125.388C582.991 126.151 582.776 126.835 582.347 127.44C581.933 128.044 581.329 128.521 580.534 128.871C579.754 129.205 578.84 129.372 577.79 129.372Z" fill="#0D0D23"/>
<rect x="303" y="95.7773" width="156.341" height="79.314" rx="39.657" transform="rotate(-17.7944 303 95.7773)" fill="#F7F2BB"/>
<path d="M360.849 126.912C359.743 127.267 358.683 127.398 357.668 127.307C356.668 127.21 355.796 126.888 355.053 126.342C354.31 125.795 353.775 125.04 353.449 124.076L356.856 122.982C357.111 123.619 357.503 124.061 358.033 124.308C358.579 124.55 359.215 124.555 359.942 124.322C360.684 124.083 361.211 123.722 361.523 123.238C361.831 122.738 361.892 122.201 361.707 121.625C361.557 121.156 361.289 120.816 360.904 120.605C360.519 120.395 360.08 120.277 359.588 120.251C359.105 120.206 358.452 120.198 357.626 120.229C356.499 120.257 355.564 120.231 354.821 120.153C354.087 120.054 353.391 119.785 352.732 119.345C352.083 118.885 351.599 118.155 351.278 117.155C350.977 116.217 350.949 115.323 351.195 114.476C351.441 113.629 351.929 112.887 352.661 112.252C353.387 111.601 354.296 111.101 355.386 110.751C357.021 110.226 358.475 110.202 359.748 110.679C361.03 111.136 361.953 112.059 362.516 113.448L359.017 114.571C358.812 114.036 358.434 113.664 357.883 113.457C357.342 113.23 356.716 113.23 356.004 113.459C355.384 113.658 354.935 113.977 354.658 114.417C354.397 114.852 354.364 115.372 354.558 115.977C354.694 116.401 354.945 116.714 355.309 116.914C355.685 117.094 356.106 117.209 356.573 117.26C357.051 117.29 357.704 117.298 358.534 117.282C359.661 117.254 360.599 117.287 361.347 117.381C362.096 117.475 362.802 117.75 363.466 118.205C364.13 118.66 364.62 119.379 364.936 120.364C365.208 121.212 365.241 122.07 365.035 122.938C364.829 123.805 364.373 124.595 363.666 125.306C362.954 126.003 362.015 126.538 360.849 126.912ZM378.757 113.748C378.903 114.202 379.003 114.621 379.06 115.004L369.86 117.956C370.227 118.841 370.774 119.45 371.499 119.785C372.225 120.121 372.996 120.157 373.814 119.894C374.995 119.515 375.673 118.738 375.847 117.563L379.277 116.462C379.303 117.79 378.927 119.013 378.15 120.131C377.368 121.234 376.227 122.026 374.728 122.507C373.517 122.896 372.341 122.981 371.202 122.762C370.073 122.523 369.078 121.999 368.217 121.19C367.371 120.376 366.741 119.325 366.328 118.038C365.91 116.735 365.808 115.507 366.022 114.352C366.236 113.198 366.735 112.203 367.519 111.366C368.303 110.53 369.316 109.913 370.558 109.514C371.754 109.13 372.904 109.045 374.009 109.259C375.128 109.467 376.098 109.966 376.919 110.755C377.751 111.524 378.363 112.521 378.757 113.748ZM375.171 113.896C374.894 113.084 374.389 112.527 373.658 112.227C372.923 111.912 372.138 111.888 371.305 112.156C370.518 112.408 369.929 112.865 369.54 113.524C369.16 114.164 369.046 114.927 369.197 115.814L375.171 113.896ZM380.97 101.738L386.365 118.547L383.185 119.568L377.79 102.758L380.97 101.738ZM387.292 99.7085L392.687 116.518L389.507 117.539L384.112 100.729L387.292 99.7085ZM405.421 105.19C405.566 105.644 405.667 106.063 405.723 106.446L396.524 109.398C396.891 110.283 397.438 110.892 398.163 111.228C398.889 111.563 399.66 111.599 400.478 111.336C401.659 110.957 402.337 110.18 402.511 109.005L405.941 107.904C405.966 109.232 405.591 110.456 404.814 111.573C404.032 112.676 402.891 113.468 401.392 113.95C400.18 114.338 399.005 114.423 397.866 114.204C396.737 113.965 395.742 113.441 394.881 112.632C394.035 111.818 393.405 110.767 392.992 109.48C392.574 108.177 392.472 106.949 392.686 105.795C392.9 104.64 393.399 103.645 394.183 102.809C394.967 101.972 395.98 101.355 397.222 100.956C398.418 100.572 399.568 100.487 400.672 100.701C401.792 100.909 402.762 101.408 403.583 102.197C404.414 102.966 405.027 103.963 405.421 105.19ZM401.835 105.339C401.558 104.526 401.053 103.969 400.322 103.669C399.587 103.354 398.802 103.33 397.969 103.598C397.182 103.85 396.593 104.307 396.204 104.966C395.824 105.606 395.71 106.369 395.861 107.256L401.835 105.339ZM409.617 99.3582C409.812 98.5607 410.174 97.8681 410.704 97.2805C411.249 96.6881 411.945 96.2558 412.793 95.9836L413.865 99.3227L413.025 99.5925C412.025 99.9133 411.343 100.391 410.979 101.026C410.63 101.656 410.643 102.554 411.017 103.72L413.029 109.989L409.849 111.01L405.81 98.4254L408.99 97.4047L409.617 99.3582ZM423.914 106.721C422.884 107.051 421.902 107.166 420.968 107.065C420.028 106.949 419.214 106.651 418.526 106.17C417.852 105.685 417.369 105.063 417.075 104.306L420.278 103.278C420.494 103.743 420.858 104.069 421.369 104.256C421.895 104.438 422.468 104.429 423.089 104.23C423.695 104.035 424.125 103.763 424.381 103.414C424.651 103.06 424.726 102.694 424.604 102.315C424.473 101.906 424.164 101.671 423.677 101.611C423.2 101.53 422.468 101.514 421.482 101.563C420.47 101.638 419.622 101.651 418.939 101.603C418.27 101.55 417.637 101.344 417.037 100.986C416.453 100.622 416.024 100.016 415.752 99.1681C415.528 98.4715 415.521 97.7723 415.73 97.0704C415.954 96.3637 416.384 95.7247 417.019 95.1534C417.669 94.5772 418.502 94.1263 419.516 93.8007C421.016 93.3195 422.334 93.3141 423.47 93.7845C424.602 94.2398 425.417 95.0889 425.916 96.3318L422.872 97.3087C422.666 96.8236 422.328 96.4979 421.857 96.3317C421.397 96.1454 420.856 96.152 420.235 96.3513C419.659 96.5359 419.247 96.7853 418.997 97.0994C418.762 97.4086 418.705 97.7525 418.827 98.1311C418.963 98.5551 419.279 98.8127 419.776 98.9037C420.268 98.9797 420.998 98.9878 421.964 98.9282C422.945 98.8637 423.77 98.8579 424.439 98.9106C425.107 98.9634 425.736 99.1791 426.325 99.5579C426.925 99.9167 427.366 100.51 427.648 101.338C427.882 102.065 427.886 102.782 427.662 103.489C427.453 104.19 427.023 104.829 426.373 105.406C425.733 105.962 424.913 106.4 423.914 106.721Z" fill="#0D0D23"/>
</svg>
