<svg width="63" height="60" viewBox="0 0 63 60" fill="none" xmlns="http://www.w3.org/2000/svg">
<path d="M31.744 0.308594L40.6697 10.6765H22.8183L31.744 0.308594Z" fill="url(#paint0_linear_5879_190809)"/>
<path d="M31.7482 59.4744L22.8225 49.1065L40.6739 49.1065L31.7482 59.4744Z" fill="url(#paint1_linear_5879_190809)"/>
<g filter="url(#filter0_f_5879_190809)">
<path d="M31.4986 2.96069L32.5327 6.08149L35.6769 7.10786L32.5327 8.13423L31.4986 11.255L30.4645 8.13423L27.3203 7.10786L30.4645 6.08149L31.4986 2.96069Z" fill="white" fill-opacity="0.62"/>
<path d="M31.4986 3.05445L32.5047 6.09076L32.5094 6.1049L32.5236 6.10952L35.5819 7.10786L32.5236 8.10619L32.5094 8.11081L32.5047 8.12495L31.4986 11.1613L30.4925 8.12495L30.4879 8.11081L30.4737 8.10619L27.4153 7.10786L30.4737 6.10952L30.4879 6.1049L30.4925 6.09076L31.4986 3.05445Z" stroke="#FFC886" stroke-width="0.0589819"/>
</g>
<path d="M57.5577 44.6851L44.0485 47.1734L52.9742 31.8289L57.5577 44.6851Z" fill="url(#paint2_linear_5879_190809)"/>
<path d="M5.9345 15.0979L19.4437 12.6096L10.518 27.9541L5.9345 15.0979Z" fill="url(#paint3_linear_5879_190809)"/>
<path d="M57.5595 15.1013L52.976 27.9575L44.0503 12.613L57.5595 15.1013Z" fill="url(#paint4_linear_5879_190809)"/>
<path d="M5.93269 44.6799L10.5162 31.8237L19.4418 47.1682L5.93269 44.6799Z" fill="url(#paint5_linear_5879_190809)"/>
<path d="M54.7229 29.6126C54.7229 42.051 44.5635 52.1363 32.0289 52.1363C19.4944 52.1363 9.33495 42.051 9.33495 29.6126C9.33495 17.1741 19.4944 7.08886 32.0289 7.08886C44.5635 7.08886 54.7229 17.1741 54.7229 29.6126Z" fill="url(#paint6_linear_5879_190809)" stroke="url(#paint7_linear_5879_190809)" stroke-width="0.294909"/>
<g filter="url(#filter1_i_5879_190809)">
<ellipse cx="32.0246" cy="29.6156" rx="20.0559" ry="19.9064" fill="url(#paint8_linear_5879_190809)"/>
</g>
<g filter="url(#filter2_ii_5879_190809)">
<ellipse cx="32.0257" cy="29.616" rx="16.7132" ry="16.5886" fill="url(#paint9_linear_5879_190809)"/>
</g>
<g filter="url(#filter3_d_5879_190809)">
<ellipse cx="42.0769" cy="24.6218" rx="1.04566" ry="1.03786" fill="url(#paint10_linear_5879_190809)"/>
</g>
<path d="M23.1088 15.2383L23.5225 16.4866L24.7801 16.8971L23.5225 17.3077L23.1088 18.556L22.6952 17.3077L21.4375 16.8971L22.6952 16.4866L23.1088 15.2383Z" fill="white"/>
<path d="M18.0951 9.70923L19.0602 12.622L21.9948 13.5799L19.0602 14.5379L18.0951 17.4506L17.1299 14.5379L14.1953 13.5799L17.1299 12.622L18.0951 9.70923Z" fill="white"/>
<defs>
<filter id="filter0_f_5879_190809" x="25.8458" y="1.48615" width="11.3085" height="11.2435" filterUnits="userSpaceOnUse" color-interpolation-filters="sRGB">
<feFlood flood-opacity="0" result="BackgroundImageFix"/>
<feBlend mode="normal" in="SourceGraphic" in2="BackgroundImageFix" result="shape"/>
<feGaussianBlur stdDeviation="0.737273" result="effect1_foregroundBlur_5879_190809"/>
</filter>
<filter id="filter1_i_5879_190809" x="11.9688" y="9.11941" width="40.1094" height="40.4026" filterUnits="userSpaceOnUse" color-interpolation-filters="sRGB">
<feFlood flood-opacity="0" result="BackgroundImageFix"/>
<feBlend mode="normal" in="SourceGraphic" in2="BackgroundImageFix" result="shape"/>
<feColorMatrix in="SourceAlpha" type="matrix" values="0 0 0 0 0 0 0 0 0 0 0 0 0 0 0 0 0 0 127 0" result="hardAlpha"/>
<feOffset dy="-0.589819"/>
<feGaussianBlur stdDeviation="0.589819"/>
<feComposite in2="hardAlpha" operator="arithmetic" k2="-1" k3="1"/>
<feColorMatrix type="matrix" values="0 0 0 0 0 0 0 0 0 0.172667 0 0 0 0 0.616667 0 0 0 0.15 0"/>
<feBlend mode="normal" in2="shape" result="effect1_innerShadow_5879_190809"/>
</filter>
<filter id="filter2_ii_5879_190809" x="15.3125" y="12.4375" width="33.4297" height="34.3569" filterUnits="userSpaceOnUse" color-interpolation-filters="sRGB">
<feFlood flood-opacity="0" result="BackgroundImageFix"/>
<feBlend mode="normal" in="SourceGraphic" in2="BackgroundImageFix" result="shape"/>
<feColorMatrix in="SourceAlpha" type="matrix" values="0 0 0 0 0 0 0 0 0 0 0 0 0 0 0 0 0 0 127 0" result="hardAlpha"/>
<feOffset dy="0.589819"/>
<feGaussianBlur stdDeviation="1.47455"/>
<feComposite in2="hardAlpha" operator="arithmetic" k2="-1" k3="1"/>
<feColorMatrix type="matrix" values="0 0 0 0 0.4875 0 0 0 0 0.1755 0 0 0 0 0 0 0 0 1 0"/>
<feBlend mode="normal" in2="shape" result="effect1_innerShadow_5879_190809"/>
<feColorMatrix in="SourceAlpha" type="matrix" values="0 0 0 0 0 0 0 0 0 0 0 0 0 0 0 0 0 0 127 0" result="hardAlpha"/>
<feOffset dy="-0.589819"/>
<feGaussianBlur stdDeviation="1.47455"/>
<feComposite in2="hardAlpha" operator="arithmetic" k2="-1" k3="1"/>
<feColorMatrix type="matrix" values="0 0 0 0 1 0 0 0 0 0.716167 0 0 0 0 0.454167 0 0 0 1 0"/>
<feBlend mode="normal" in2="effect1_innerShadow_5879_190809" result="effect2_innerShadow_5879_190809"/>
</filter>
<filter id="filter3_d_5879_190809" x="39.8516" y="22.9942" width="4.45302" height="4.43496" filterUnits="userSpaceOnUse" color-interpolation-filters="sRGB">
<feFlood flood-opacity="0" result="BackgroundImageFix"/>
<feColorMatrix in="SourceAlpha" type="matrix" values="0 0 0 0 0 0 0 0 0 0 0 0 0 0 0 0 0 0 127 0" result="hardAlpha"/>
<feOffset dy="0.589819"/>
<feGaussianBlur stdDeviation="0.589819"/>
<feComposite in2="hardAlpha" operator="out"/>
<feColorMatrix type="matrix" values="0 0 0 0 0.6 0 0 0 0 0.361709 0 0 0 0 0.19 0 0 0 1 0"/>
<feBlend mode="normal" in2="BackgroundImageFix" result="effect1_dropShadow_5879_190809"/>
<feBlend mode="normal" in="SourceGraphic" in2="effect1_dropShadow_5879_190809" result="shape"/>
</filter>
<linearGradient id="paint0_linear_5879_190809" x1="28.0337" y1="4.45576" x2="35.4543" y2="4.45576" gradientUnits="userSpaceOnUse">
<stop offset="0.488759" stop-color="#FFC786"/>
<stop offset="0.488859" stop-color="#D1E5EE"/>
<stop offset="0.488959" stop-color="#D18E5C"/>
</linearGradient>
<linearGradient id="paint1_linear_5879_190809" x1="35.4585" y1="55.3272" x2="28.0378" y2="55.3272" gradientUnits="userSpaceOnUse">
<stop offset="0.488759" stop-color="#FFC786"/>
<stop offset="0.488859" stop-color="#D1E5EE"/>
<stop offset="0.488959" stop-color="#D18E5C"/>
</linearGradient>
<linearGradient id="paint2_linear_5879_190809" x1="55.7943" y1="39.4222" x2="52.1255" y2="45.8246" gradientUnits="userSpaceOnUse">
<stop offset="0.488759" stop-color="#FFC786"/>
<stop offset="0.488859" stop-color="#D1E5EE"/>
<stop offset="0.488959" stop-color="#D18E5C"/>
</linearGradient>
<linearGradient id="paint3_linear_5879_190809" x1="7.69785" y1="20.3608" x2="11.3667" y2="13.9584" gradientUnits="userSpaceOnUse">
<stop offset="0.488759" stop-color="#FFC786"/>
<stop offset="0.488859" stop-color="#D1E5EE"/>
<stop offset="0.488959" stop-color="#D18E5C"/>
</linearGradient>
<linearGradient id="paint4_linear_5879_190809" x1="52.0858" y1="13.9856" x2="55.7547" y2="20.388" gradientUnits="userSpaceOnUse">
<stop offset="0.488759" stop-color="#FFC786"/>
<stop offset="0.488859" stop-color="#D1E5EE"/>
<stop offset="0.488959" stop-color="#D18E5C"/>
</linearGradient>
<linearGradient id="paint5_linear_5879_190809" x1="11.4064" y1="45.7956" x2="7.73753" y2="39.3933" gradientUnits="userSpaceOnUse">
<stop offset="0.488759" stop-color="#FFC786"/>
<stop offset="0.488859" stop-color="#D1E5EE"/>
<stop offset="0.488959" stop-color="#D18E5C"/>
</linearGradient>
<linearGradient id="paint6_linear_5879_190809" x1="17.387" y1="12.7545" x2="47.5898" y2="46.6953" gradientUnits="userSpaceOnUse">
<stop stop-color="#FFC887"/>
<stop offset="0.520833" stop-color="#FFE7CB"/>
<stop offset="1" stop-color="#B45612"/>
</linearGradient>
<linearGradient id="paint7_linear_5879_190809" x1="32.0289" y1="6.94141" x2="32.0289" y2="52.2837" gradientUnits="userSpaceOnUse">
<stop stop-color="white" stop-opacity="0.5"/>
<stop offset="1" stop-color="white" stop-opacity="0"/>
</linearGradient>
<linearGradient id="paint8_linear_5879_190809" x1="19.2112" y1="14.4093" x2="44.6111" y2="45.2851" gradientUnits="userSpaceOnUse">
<stop stop-color="#D28E5D"/>
<stop offset="1" stop-color="#FFC887"/>
</linearGradient>
<linearGradient id="paint9_linear_5879_190809" x1="20.9655" y1="15.9548" x2="34.5591" y2="46.281" gradientUnits="userSpaceOnUse">
<stop stop-color="#FFCD92"/>
<stop offset="0.484375" stop-color="#D88335"/>
<stop offset="1" stop-color="#9C5A2A"/>
</linearGradient>
<linearGradient id="paint10_linear_5879_190809" x1="42.0769" y1="23.584" x2="42.0769" y2="25.6597" gradientUnits="userSpaceOnUse">
<stop stop-color="#FFE5C7"/>
<stop offset="1" stop-color="#D28E5D"/>
</linearGradient>
</defs>
</svg>
