<svg width="62" height="52" viewBox="0 0 62 52" fill="none" xmlns="http://www.w3.org/2000/svg">
<rect x="15" width="32" height="32" rx="16" fill="url(#paint0_linear_243_1496)"/>
<g filter="url(#filter0_f_243_1496)">
<ellipse cx="31" cy="26.5" rx="10.5" ry="5.5" fill="url(#paint1_linear_243_1496)"/>
</g>
<path d="M35.8519 11.8295C34.9442 11.4389 33.9863 11.1603 33.0021 11.0006C32.9931 10.9992 32.984 11.0004 32.9758 11.004C32.9677 11.0077 32.9609 11.0137 32.9566 11.0211C32.8332 11.2261 32.6967 11.4942 32.6013 11.7041C31.5405 11.5533 30.4614 11.5533 29.4006 11.7041C29.2947 11.4701 29.1743 11.242 29.0401 11.0211C29.0357 11.0137 29.029 11.0077 29.0208 11.004C29.0127 11.0004 29.0035 10.9992 28.9946 11.0006C28.0102 11.1596 27.0521 11.4384 26.1448 11.8295C26.1369 11.8322 26.1304 11.8375 26.1264 11.8443C24.3116 14.3853 23.8138 16.864 24.0579 19.3115C24.0596 19.3235 24.0658 19.3336 24.0763 19.3418C25.1332 20.075 26.3152 20.6351 27.5719 20.9981C27.5807 21.0007 27.5903 21.0006 27.5991 20.9978C27.6079 20.995 27.6155 20.9897 27.6209 20.9825C27.8909 20.6381 28.1295 20.2749 28.3366 19.8928C28.3409 19.885 28.3424 19.876 28.3408 19.8673C28.3392 19.8586 28.3347 19.8505 28.3279 19.8444L28.3121 19.8354C27.9353 19.6993 27.5702 19.5362 27.2201 19.3476C27.2103 19.3424 27.2031 19.3339 27.1998 19.3238C27.1966 19.3137 27.1976 19.3028 27.2026 19.2934L27.2157 19.2779C27.2898 19.2259 27.3622 19.1726 27.4327 19.118C27.4389 19.1133 27.4463 19.1103 27.4542 19.1093C27.4621 19.1083 27.4701 19.1093 27.4774 19.1122C29.769 20.0929 32.2496 20.0929 34.5132 19.1122C34.5207 19.109 34.529 19.1078 34.5372 19.1088C34.5454 19.1098 34.5532 19.113 34.5595 19.118C34.6301 19.1726 34.7025 19.2259 34.7765 19.2779C34.7827 19.2818 34.7877 19.2872 34.791 19.2934C34.7943 19.2997 34.7959 19.3066 34.7955 19.3136C34.7952 19.3206 34.7929 19.3274 34.789 19.3333C34.7851 19.3393 34.7796 19.3442 34.773 19.3476C34.4244 19.5392 34.0588 19.7021 33.6802 19.8346C33.6741 19.8367 33.6687 19.8399 33.6641 19.8442C33.6596 19.8484 33.6561 19.8535 33.6539 19.8592C33.6518 19.8647 33.6509 19.8705 33.6514 19.8763C33.6518 19.8821 33.6536 19.8877 33.6565 19.8928C33.8665 20.2741 34.1072 20.6381 34.3714 20.9825C34.3768 20.9897 34.3844 20.995 34.3932 20.9978C34.402 21.0006 34.4115 21.0007 34.4204 20.9981C35.6796 20.6371 36.8636 20.0769 37.9213 19.3418C37.9265 19.3383 37.9309 19.3338 37.9341 19.3286C37.9372 19.3233 37.9391 19.3175 37.9396 19.3115C38.2319 16.4819 37.4505 14.0237 35.8694 11.8451C35.868 11.8414 35.8657 11.838 35.8627 11.8353C35.8596 11.8326 35.8559 11.8306 35.8519 11.8295ZM28.6787 17.8208C27.9884 17.8208 27.4205 17.2272 27.4205 16.4991C27.4205 15.771 27.9779 15.1765 28.6787 15.1765C29.3848 15.1765 29.9475 15.7751 29.937 16.4991C29.937 17.2272 29.3796 17.8208 28.6787 17.8208ZM33.3302 17.8208C32.6407 17.8208 32.0719 17.2272 32.0719 16.4991C32.0719 15.771 32.6293 15.1765 33.3302 15.1765C34.0363 15.1765 34.5998 15.7751 34.5884 16.4991C34.5884 17.2272 34.0363 17.8208 33.3302 17.8208Z" fill="white"/>
<defs>
<filter id="filter0_f_243_1496" x="0.5" y="1" width="61" height="51" filterUnits="userSpaceOnUse" color-interpolation-filters="sRGB">
<feFlood flood-opacity="0" result="BackgroundImageFix"/>
<feBlend mode="normal" in="SourceGraphic" in2="BackgroundImageFix" result="shape"/>
<feGaussianBlur stdDeviation="10" result="effect1_foregroundBlur_243_1496"/>
</filter>
<linearGradient id="paint0_linear_243_1496" x1="47" y1="6.08" x2="13.1337" y2="14.9716" gradientUnits="userSpaceOnUse">
<stop stop-color="#51C0FF"/>
<stop offset="1" stop-color="#9452FF"/>
</linearGradient>
<linearGradient id="paint1_linear_243_1496" x1="41.5" y1="23.09" x2="22.5133" y2="32.6067" gradientUnits="userSpaceOnUse">
<stop stop-color="#51C0FF"/>
<stop offset="1" stop-color="#9452FF"/>
</linearGradient>
</defs>
</svg>
