<svg width="16" height="16" viewBox="0 0 16 16" fill="none" xmlns="http://www.w3.org/2000/svg">
<path fillRule="evenodd" clipRule="evenodd" d="M16 8.00002C16 12.4183 12.4183 16 8.00002 16C3.58173 16 0 12.4183 0 8.00002C0 3.58173 3.58173 0 8.00002 0C12.4183 0 16 3.58173 16 8.00002ZM5.17015 9.75853C5.09249 9.75844 5.01793 9.78899 4.96265 9.84353L3.54364 11.251C3.52304 11.2714 3.50898 11.2974 3.50326 11.3258C3.49755 11.3542 3.50043 11.3836 3.51154 11.4104C3.52266 11.4371 3.5415 11.4599 3.56566 11.4759C3.58981 11.4919 3.61818 11.5003 3.64714 11.5H10.8302C10.9079 11.5 10.9825 11.4693 11.0377 11.4145L12.4567 10.007C12.4773 9.98674 12.4915 9.96073 12.4972 9.93235C12.503 9.90396 12.5001 9.8745 12.489 9.84776C12.4778 9.82102 12.459 9.79823 12.4347 9.78233C12.4105 9.76642 12.3821 9.75813 12.3532 9.75853H5.17015ZM5.17015 4.50001C5.09249 4.49993 5.01793 4.53047 4.96265 4.58501L3.54364 5.99302C3.52321 6.0134 3.50931 6.03939 3.50369 6.06769C3.49807 6.09599 3.501 6.12532 3.51209 6.15196C3.52319 6.1786 3.54195 6.20133 3.566 6.21728C3.59004 6.23323 3.61829 6.24166 3.64714 6.24152H10.8302C10.9078 6.2416 10.9824 6.21106 11.0377 6.15652L12.4567 4.74901C12.5492 4.65701 12.4837 4.50001 12.3532 4.50001H5.17015ZM10.8302 7.11252C10.9078 7.11244 10.9824 7.14298 11.0377 7.19752L12.4567 8.60502C12.4773 8.62537 12.4913 8.65141 12.497 8.6798C12.5028 8.70819 12.4999 8.73764 12.4888 8.76437C12.4776 8.79111 12.4588 8.81393 12.4346 8.8299C12.4105 8.84587 12.3821 8.85427 12.3532 8.85402H5.17015C5.09265 8.85402 5.01764 8.82352 4.96265 8.76902L3.54364 7.36152C3.52304 7.34117 3.50898 7.31513 3.50326 7.28674C3.49755 7.25836 3.50043 7.22891 3.51154 7.20217C3.52266 7.17543 3.5415 7.15261 3.56566 7.13664C3.58981 7.12067 3.61818 7.11227 3.64714 7.11252H10.8302Z" fill="white"/>
</svg>
