<svg width="16" height="16" viewBox="0 0 16 16" fill="none" xmlns="http://www.w3.org/2000/svg">
<path fillRule="evenodd" clip-rule="evenodd" d="M16 8C16 12.4334 12.4334 16 8 16C3.56664 16 0 12.4334 0 8C0 3.56664 3.56664 0 8 0C12.4334 0 16 3.56664 16 8ZM6.29998 12.7667C3.69998 11.8334 2.36662 8.93337 3.33334 6.36665C3.83334 4.96665 4.93334 3.90001 6.29998 3.40001C6.43334 3.33337 6.49998 3.23337 6.49998 3.06665V2.60001C6.49998 2.46665 6.43334 2.36665 6.29998 2.33337C6.26662 2.33337 6.19998 2.33337 6.16662 2.36665C2.99998 3.36665 1.26662 6.73337 2.26662 9.90001C2.86662 11.7667 4.29998 13.2 6.16662 13.8C6.29998 13.8667 6.43334 13.8 6.46662 13.6667C6.49998 13.6334 6.49998 13.6 6.49998 13.5334V13.0667C6.49998 12.9667 6.39998 12.8334 6.29998 12.7667ZM9.83334 2.36665C9.69998 2.30001 9.56662 2.36665 9.53334 2.50001C9.49998 2.53337 9.49998 2.56665 9.49998 2.63337V3.10001C9.49998 3.23337 9.59998 3.36665 9.69998 3.43337C12.3 4.36665 13.6333 7.26665 12.6666 9.83337C12.1666 11.2334 11.0666 12.3 9.69998 12.8C9.56662 12.8667 9.49998 12.9667 9.49998 13.1334V13.6C9.49998 13.7334 9.56662 13.8334 9.69998 13.8667C9.73334 13.8667 9.79998 13.8667 9.83334 13.8334C13 12.8334 14.7333 9.46665 13.7333 6.30001C13.1333 4.40001 11.6666 2.96665 9.83334 2.36665ZM10.2 9.26665C10.2 8.10001 9.50004 7.70001 8.10004 7.53337C7.10004 7.40001 6.90004 7.13337 6.90004 6.66665C6.90004 6.19993 7.2334 5.90001 7.90004 5.90001C8.50004 5.90001 8.8334 6.10001 9.00004 6.60001C9.0334 6.70001 9.1334 6.76665 9.2334 6.76665H9.76668C9.90004 6.76665 10 6.66665 10 6.53337V6.50001C9.86668 5.76665 9.26668 5.20001 8.50004 5.13337V4.33337C8.50004 4.20001 8.40004 4.10001 8.2334 4.06665H7.7334C7.60004 4.06665 7.50004 4.16665 7.46668 4.33337V5.10001C6.46668 5.23337 5.8334 5.90001 5.8334 6.73337C5.8334 7.83337 6.50004 8.26665 7.90004 8.43337C8.8334 8.60001 9.1334 8.80001 9.1334 9.33337C9.1334 9.86673 8.66668 10.2334 8.0334 10.2334C7.16668 10.2334 6.86668 9.86665 6.76668 9.36665C6.7334 9.23337 6.6334 9.16665 6.5334 9.16665H5.96668C5.8334 9.16665 5.7334 9.26665 5.7334 9.40001V9.43337C5.86668 10.2667 6.40004 10.8667 7.50004 11.0334V11.8334C7.50004 11.9667 7.60004 12.0667 7.76668 12.1H8.26668C8.40004 12.1 8.50004 12 8.5334 11.8334V11.0334C9.5334 10.8667 10.2 10.1667 10.2 9.26665Z" fill="#2775CA"/>
<path fillRule="evenodd" clip-rule="evenodd" d="M16 8C16 12.4334 12.4334 16 8 16C3.56664 16 0 12.4334 0 8C0 3.56664 3.56664 0 8 0C12.4334 0 16 3.56664 16 8ZM6.29998 12.7667C3.69998 11.8334 2.36662 8.93337 3.33334 6.36665C3.83334 4.96665 4.93334 3.90001 6.29998 3.40001C6.43334 3.33337 6.49998 3.23337 6.49998 3.06665V2.60001C6.49998 2.46665 6.43334 2.36665 6.29998 2.33337C6.26662 2.33337 6.19998 2.33337 6.16662 2.36665C2.99998 3.36665 1.26662 6.73337 2.26662 9.90001C2.86662 11.7667 4.29998 13.2 6.16662 13.8C6.29998 13.8667 6.43334 13.8 6.46662 13.6667C6.49998 13.6334 6.49998 13.6 6.49998 13.5334V13.0667C6.49998 12.9667 6.39998 12.8334 6.29998 12.7667ZM9.83334 2.36665C9.69998 2.30001 9.56662 2.36665 9.53334 2.50001C9.49998 2.53337 9.49998 2.56665 9.49998 2.63337V3.10001C9.49998 3.23337 9.59998 3.36665 9.69998 3.43337C12.3 4.36665 13.6333 7.26665 12.6666 9.83337C12.1666 11.2334 11.0666 12.3 9.69998 12.8C9.56662 12.8667 9.49998 12.9667 9.49998 13.1334V13.6C9.49998 13.7334 9.56662 13.8334 9.69998 13.8667C9.73334 13.8667 9.79998 13.8667 9.83334 13.8334C13 12.8334 14.7333 9.46665 13.7333 6.30001C13.1333 4.40001 11.6666 2.96665 9.83334 2.36665ZM10.2 9.26665C10.2 8.10001 9.50004 7.70001 8.10004 7.53337C7.10004 7.40001 6.90004 7.13337 6.90004 6.66665C6.90004 6.19993 7.2334 5.90001 7.90004 5.90001C8.50004 5.90001 8.8334 6.10001 9.00004 6.60001C9.0334 6.70001 9.1334 6.76665 9.2334 6.76665H9.76668C9.90004 6.76665 10 6.66665 10 6.53337V6.50001C9.86668 5.76665 9.26668 5.20001 8.50004 5.13337V4.33337C8.50004 4.20001 8.40004 4.10001 8.2334 4.06665H7.7334C7.60004 4.06665 7.50004 4.16665 7.46668 4.33337V5.10001C6.46668 5.23337 5.8334 5.90001 5.8334 6.73337C5.8334 7.83337 6.50004 8.26665 7.90004 8.43337C8.8334 8.60001 9.1334 8.80001 9.1334 9.33337C9.1334 9.86673 8.66668 10.2334 8.0334 10.2334C7.16668 10.2334 6.86668 9.86665 6.76668 9.36665C6.7334 9.23337 6.6334 9.16665 6.5334 9.16665H5.96668C5.8334 9.16665 5.7334 9.26665 5.7334 9.40001V9.43337C5.86668 10.2667 6.40004 10.8667 7.50004 11.0334V11.8334C7.50004 11.9667 7.60004 12.0667 7.76668 12.1H8.26668C8.40004 12.1 8.50004 12 8.5334 11.8334V11.0334C9.5334 10.8667 10.2 10.1667 10.2 9.26665Z" fill="url(#paint0_linear_3053_27516)"/>
<defs>
<linearGradient id="paint0_linear_3053_27516" x1="8" y1="15.999" x2="8" y2="-0.000979424" gradientUnits="userSpaceOnUse">
<stop stop-color="#05AAC5"/>
<stop offset="1" stop-color="#71E0EC"/>
</linearGradient>
</defs>
</svg>
